<svg width="16" height="9" viewBox="0 0 16 9" fill="none" xmlns="http://www.w3.org/2000/svg">
<path d="M14.8749 0.609068C14.6173 0.352973 14.2688 0.209229 13.9055 0.209229C13.5423 0.209229 13.1938 0.352973 12.9361 0.609068L7.9999 5.47657L3.1324 0.609068C2.87478 0.352973 2.52628 0.209229 2.16302 0.209229C1.79977 0.209229 1.45127 0.352973 1.19365 0.609068C1.06477 0.736892 0.96248 0.888969 0.892673 1.05653C0.822866 1.22408 0.786926 1.4038 0.786926 1.58532C0.786926 1.76683 0.822866 1.94655 0.892673 2.11411C0.96248 2.28167 1.06477 2.43374 1.19365 2.56157L7.02365 8.39157C7.15147 8.52044 7.30355 8.62274 7.47111 8.69254C7.63866 8.76235 7.81838 8.79829 7.9999 8.79829C8.18142 8.79829 8.36114 8.76235 8.52869 8.69254C8.69625 8.62274 8.84832 8.52044 8.97615 8.39157L14.8749 2.56157C15.0038 2.43374 15.1061 2.28167 15.1759 2.11411C15.2457 1.94655 15.2816 1.76683 15.2816 1.58532C15.2816 1.4038 15.2457 1.22408 15.1759 1.05653C15.1061 0.888969 15.0038 0.736892 14.8749 0.609068Z" fill="#5A57FF"/>
</svg>
