<svg width="5" height="8" viewBox="0 0 5 8" fill="none" xmlns="http://www.w3.org/2000/svg">
<path d="M4.27017 3.64477L1.44017 0.819774C1.39369 0.77291 1.33839 0.735713 1.27746 0.710329C1.21653 0.684944 1.15118 0.671875 1.08517 0.671875C1.01917 0.671875 0.953815 0.684944 0.892886 0.710329C0.831956 0.735713 0.776656 0.77291 0.730174 0.819774C0.637049 0.913455 0.584778 1.04018 0.584778 1.17227C0.584778 1.30437 0.637049 1.43109 0.730174 1.52477L3.20517 4.02477L0.730174 6.49977C0.637049 6.59346 0.584778 6.72018 0.584778 6.85227C0.584778 6.98437 0.637049 7.11109 0.730174 7.20477C0.776481 7.25202 0.831704 7.2896 0.892642 7.31535C0.953579 7.3411 1.01902 7.3545 1.08517 7.35477C1.15133 7.3545 1.21677 7.3411 1.27771 7.31535C1.33864 7.2896 1.39387 7.25202 1.44017 7.20477L4.27017 4.37977C4.32093 4.33295 4.36143 4.27613 4.38913 4.21288C4.41684 4.14963 4.43114 4.08133 4.43114 4.01227C4.43114 3.94322 4.41684 3.87492 4.38913 3.81167C4.36143 3.74842 4.32093 3.6916 4.27017 3.64477Z" fill="#F2F2F2"/>
</svg>
