<svg width="18" height="18" viewBox="0 0 18 18" fill="none" xmlns="http://www.w3.org/2000/svg">
<path d="M11.267 6.32484L7.692 9.90817L6.317 8.53317C6.24229 8.44594 6.15036 8.37509 6.04697 8.32507C5.94358 8.27505 5.83097 8.24694 5.71621 8.24251C5.60144 8.23807 5.487 8.25741 5.38006 8.29931C5.27312 8.3412 5.176 8.40475 5.09479 8.48596C5.01357 8.56717 4.95003 8.6643 4.90813 8.77124C4.86624 8.87817 4.8469 8.99262 4.85133 9.10738C4.85576 9.22215 4.88387 9.33476 4.93389 9.43815C4.98391 9.54153 5.05476 9.63347 5.142 9.70817L7.10033 11.6748C7.1782 11.7521 7.27054 11.8132 7.37207 11.8546C7.4736 11.8961 7.58232 11.9171 7.692 11.9165C7.91061 11.9156 8.12011 11.8288 8.27533 11.6748L12.442 7.50817C12.5201 7.4307 12.5821 7.33853 12.6244 7.23698C12.6667 7.13544 12.6885 7.02651 12.6885 6.9165C12.6885 6.80649 12.6667 6.69757 12.6244 6.59602C12.5821 6.49447 12.5201 6.40231 12.442 6.32484C12.2859 6.16963 12.0746 6.08251 11.8545 6.08251C11.6343 6.08251 11.4231 6.16963 11.267 6.32484ZM9.00033 0.666504C7.35215 0.666504 5.74099 1.15525 4.37058 2.07092C3.00017 2.9866 1.93206 4.28809 1.30133 5.81081C0.670603 7.33353 0.505575 9.00908 0.827119 10.6256C1.14866 12.2421 1.94234 13.727 3.10777 14.8924C4.27321 16.0578 5.75807 16.8515 7.37458 17.173C8.99109 17.4946 10.6666 17.3296 12.1894 16.6988C13.7121 16.0681 15.0136 15 15.9292 13.6296C16.8449 12.2592 17.3337 10.648 17.3337 8.99984C17.3337 7.90549 17.1181 6.82186 16.6993 5.81081C16.2805 4.79976 15.6667 3.8811 14.8929 3.10728C14.1191 2.33346 13.2004 1.71963 12.1894 1.30084C11.1783 0.882052 10.0947 0.666504 9.00033 0.666504ZM9.00033 15.6665C7.68179 15.6665 6.39285 15.2755 5.29653 14.543C4.2002 13.8104 3.34572 12.7692 2.84113 11.5511C2.33655 10.3329 2.20453 8.99244 2.46176 7.69924C2.719 6.40603 3.35393 5.21814 4.28628 4.28579C5.21863 3.35344 6.40652 2.7185 7.69973 2.46127C8.99293 2.20403 10.3334 2.33606 11.5516 2.84064C12.7697 3.34522 13.8109 4.19971 14.5435 5.29604C15.276 6.39236 15.667 7.6813 15.667 8.99984C15.667 10.7679 14.9646 12.4636 13.7144 13.7139C12.4641 14.9641 10.7684 15.6665 9.00033 15.6665Z" fill="#5A57FF"/>
</svg>
