<svg width="21" height="20" viewBox="0 0 21 20" fill="none" xmlns="http://www.w3.org/2000/svg">
<path d="M5.65063 13.9998C6.04846 13.9998 6.42999 13.8417 6.7113 13.5604C6.9926 13.2791 7.15063 12.8976 7.15063 12.4998C7.15552 12.4499 7.15552 12.3996 7.15063 12.3498L9.94063 9.55976H10.1706H10.4006L12.0106 11.1698C12.0106 11.1698 12.0106 11.2198 12.0106 11.2498C12.0106 11.6476 12.1687 12.0291 12.45 12.3104C12.7313 12.5917 13.1128 12.7498 13.5106 12.7498C13.9085 12.7498 14.29 12.5917 14.5713 12.3104C14.8526 12.0291 15.0106 11.6476 15.0106 11.2498V11.1698L18.6506 7.49976C18.9473 7.49976 19.2373 7.41178 19.484 7.24696C19.7307 7.08214 19.9229 6.84787 20.0365 6.57378C20.15 6.29969 20.1797 5.99809 20.1218 5.70712C20.0639 5.41615 19.9211 5.14887 19.7113 4.9391C19.5015 4.72932 19.2342 4.58646 18.9433 4.52858C18.6523 4.4707 18.3507 4.5004 18.0766 4.61394C17.8025 4.72747 17.5683 4.91973 17.4034 5.1664C17.2386 5.41307 17.1506 5.70308 17.1506 5.99976C17.1458 6.04964 17.1458 6.09987 17.1506 6.14976L13.5406 9.75976H13.3806L11.6506 7.99976C11.6506 7.60193 11.4926 7.2204 11.2113 6.9391C10.93 6.65779 10.5485 6.49976 10.1506 6.49976C9.75281 6.49976 9.37128 6.65779 9.08997 6.9391C8.80867 7.2204 8.65063 7.60193 8.65063 7.99976L5.65063 10.9998C5.25281 10.9998 4.87128 11.1578 4.58997 11.4391C4.30867 11.7204 4.15063 12.1019 4.15063 12.4998C4.15063 12.8976 4.30867 13.2791 4.58997 13.5604C4.87128 13.8417 5.25281 13.9998 5.65063 13.9998ZM19.1506 17.9998H2.15063V0.999756C2.15063 0.734539 2.04528 0.480185 1.85774 0.292649C1.67021 0.105113 1.41585 -0.000244141 1.15063 -0.000244141C0.885418 -0.000244141 0.631064 0.105113 0.443528 0.292649C0.255992 0.480185 0.150635 0.734539 0.150635 0.999756V18.9998C0.150635 19.265 0.255992 19.5193 0.443528 19.7069C0.631064 19.8944 0.885418 19.9998 1.15063 19.9998H19.1506C19.4159 19.9998 19.6702 19.8944 19.8577 19.7069C20.0453 19.5193 20.1506 19.265 20.1506 18.9998C20.1506 18.7345 20.0453 18.4802 19.8577 18.2926C19.6702 18.1051 19.4159 17.9998 19.1506 17.9998Z" fill="url(#paint0_linear_142_131)"/>
<defs>
<linearGradient id="paint0_linear_142_131" x1="10.1506" y1="-0.000244141" x2="10.1506" y2="19.9998" gradientUnits="userSpaceOnUse">
<stop stop-color="#9C9AFF"/>
<stop offset="1" stop-color="#9C9AFF" stop-opacity="0"/>
</linearGradient>
</defs>
</svg>
