<svg width="20" height="20" viewBox="0 0 20 20" fill="none" xmlns="http://www.w3.org/2000/svg">
<path d="M10.0002 0C8.02238 0 6.08898 0.58649 4.44449 1.6853C2.79999 2.78412 1.51827 4.3459 0.761392 6.17317C0.00451595 8.00043 -0.193517 10.0111 0.192335 11.9509C0.578187 13.8907 1.53059 15.6725 2.92912 17.0711C4.32764 18.4696 6.10948 19.422 8.04928 19.8079C9.98909 20.1937 11.9998 19.9957 13.827 19.2388C15.6543 18.4819 17.2161 17.2002 18.3149 15.5557C19.4137 13.9112 20.0002 11.9778 20.0002 10C20.0002 8.68678 19.7415 7.38642 19.239 6.17317C18.7364 4.95991 17.9998 3.85752 17.0713 2.92893C16.1427 2.00035 15.0403 1.26375 13.827 0.761205C12.6138 0.258658 11.3134 0 10.0002 0ZM10.0002 18C8.41794 18 6.87122 17.5308 5.55563 16.6518C4.24003 15.7727 3.21465 14.5233 2.60915 13.0615C2.00365 11.5997 1.84522 9.99113 2.15391 8.43928C2.46259 6.88743 3.22451 5.46197 4.34333 4.34315C5.46215 3.22433 6.88762 2.4624 8.43947 2.15372C9.99131 1.84504 11.5998 2.00346 13.0617 2.60896C14.5235 3.21447 15.7729 4.23984 16.6519 5.55544C17.531 6.87103 18.0002 8.41775 18.0002 10C18.0002 12.1217 17.1573 14.1566 15.657 15.6569C14.1568 17.1571 12.1219 18 10.0002 18ZM10.0002 7C9.40684 7 8.82682 7.17595 8.33348 7.50559C7.84013 7.83524 7.45561 8.30377 7.22855 8.85195C7.00149 9.40013 6.94208 10.0033 7.05783 10.5853C7.17359 11.1672 7.45931 11.7018 7.87887 12.1213C8.29842 12.5409 8.83297 12.8266 9.41492 12.9424C9.99686 13.0581 10.6001 12.9987 11.1482 12.7716C11.6964 12.5446 12.165 12.1601 12.4946 11.6667C12.8242 11.1734 13.0002 10.5933 13.0002 10C13.0002 9.20435 12.6841 8.44129 12.1215 7.87868C11.5589 7.31607 10.7958 7 10.0002 7ZM10.0002 11C9.80241 11 9.60907 10.9414 9.44462 10.8315C9.28017 10.7216 9.152 10.5654 9.07631 10.3827C9.00062 10.2 8.98082 9.99889 9.0194 9.80491C9.05799 9.61093 9.15323 9.43275 9.29308 9.29289C9.43293 9.15304 9.61112 9.0578 9.8051 9.01921C9.99908 8.98063 10.2001 9.00043 10.3829 9.07612C10.5656 9.15181 10.7218 9.27998 10.8317 9.44443C10.9415 9.60888 11.0002 9.80222 11.0002 10C11.0002 10.2652 10.8948 10.5196 10.7073 10.7071C10.5198 10.8946 10.2654 11 10.0002 11Z" fill="url(#paint0_linear_124_90)"/>
<defs>
<linearGradient id="paint0_linear_124_90" x1="10.0002" y1="0" x2="10.0002" y2="20" gradientUnits="userSpaceOnUse">
<stop stop-color="#9C9AFF"/>
<stop offset="1" stop-color="#9C9AFF" stop-opacity="0"/>
</linearGradient>
</defs>
</svg>
