<svg width="18" height="18" viewBox="0 0 18 18" fill="none" xmlns="http://www.w3.org/2000/svg">
<path d="M9.00012 0.666504C7.38385 0.669575 5.80336 1.1426 4.45115 2.02795C3.09893 2.91331 2.03337 4.17279 1.38424 5.65298C0.735111 7.13317 0.530436 8.77019 0.795144 10.3646C1.05985 11.9591 1.78252 13.4421 2.87512 14.6332C3.65547 15.479 4.60257 16.1541 5.65674 16.6158C6.7109 17.0776 7.84927 17.3159 9.00012 17.3159C10.151 17.3159 11.2893 17.0776 12.3435 16.6158C13.3977 16.1541 14.3448 15.479 15.1251 14.6332C16.2177 13.4421 16.9404 11.9591 17.2051 10.3646C17.4698 8.77019 17.2651 7.13317 16.616 5.65298C15.9669 4.17279 14.9013 2.91331 13.5491 2.02795C12.1969 1.1426 10.6164 0.669575 9.00012 0.666504ZM9.00012 15.6665C7.27384 15.6639 5.61588 14.9917 4.37512 13.7915C4.75183 12.8745 5.39265 12.0901 6.21617 11.5381C7.03968 10.9861 8.00871 10.6913 9.00012 10.6913C9.99153 10.6913 10.9606 10.9861 11.7841 11.5381C12.6076 12.0901 13.2484 12.8745 13.6251 13.7915C12.3844 14.9917 10.7264 15.6639 9.00012 15.6665ZM7.33346 7.33317C7.33346 7.00354 7.4312 6.6813 7.61434 6.40722C7.79748 6.13314 8.05777 5.91952 8.36232 5.79337C8.66686 5.66723 9.00197 5.63422 9.32527 5.69853C9.64857 5.76284 9.94555 5.92157 10.1786 6.15466C10.4117 6.38775 10.5705 6.68472 10.6348 7.00802C10.6991 7.33132 10.6661 7.66643 10.5399 7.97098C10.4138 8.27552 10.2002 8.53582 9.92607 8.71895C9.65199 8.90209 9.32976 8.99984 9.00012 8.99984C8.55809 8.99984 8.13417 8.82424 7.82161 8.51168C7.50905 8.19912 7.33346 7.7752 7.33346 7.33317ZM14.7585 12.3332C14.0139 11.0596 12.868 10.069 11.5001 9.5165C11.9244 9.03539 12.2009 8.44205 12.2963 7.8077C12.3918 7.17335 12.3022 6.52493 12.0382 5.94025C11.7743 5.35557 11.3473 4.85947 10.8084 4.51148C10.2695 4.16348 9.64161 3.97838 9.00012 3.97838C8.35863 3.97838 7.73076 4.16348 7.19187 4.51148C6.65297 4.85947 6.22593 5.35557 5.962 5.94025C5.69806 6.52493 5.60844 7.17335 5.7039 7.8077C5.79935 8.44205 6.07582 9.03539 6.50012 9.5165C5.13229 10.069 3.98635 11.0596 3.24179 12.3332C2.64841 11.3224 2.33489 10.1719 2.33346 8.99984C2.33346 7.23173 3.03583 5.53604 4.28608 4.28579C5.53632 3.03555 7.23201 2.33317 9.00012 2.33317C10.7682 2.33317 12.4639 3.03555 13.7142 4.28579C14.9644 5.53604 15.6668 7.23173 15.6668 8.99984C15.6654 10.1719 15.3518 11.3224 14.7585 12.3332Z" fill="#5A57FF"/>
</svg>
