<svg width="23" height="22" viewBox="0 0 23 22" fill="none" xmlns="http://www.w3.org/2000/svg">
<path d="M20.1704 2.87018C19.7579 2.00842 19.1072 1.28287 18.2952 0.779406C17.4833 0.275942 16.5441 0.0156441 15.5888 0.0293211C14.6335 0.0429981 13.7021 0.330077 12.9049 0.85658C12.1077 1.38308 11.478 2.12697 11.0904 3.00018H6.65038C5.85473 3.00018 5.09167 3.31625 4.52906 3.87886C3.96645 4.44147 3.65038 5.20453 3.65038 6.00018V10.0002C3.65038 10.2654 3.75574 10.5198 3.94328 10.7073C4.13081 10.8948 4.38517 11.0002 4.65038 11.0002C4.9156 11.0002 5.16995 10.8948 5.35749 10.7073C5.54503 10.5198 5.65038 10.2654 5.65038 10.0002V6.00018C5.65038 5.73496 5.75574 5.48061 5.94328 5.29307C6.13081 5.10554 6.38517 5.00018 6.65038 5.00018H9.43038C8.93259 5.54782 8.6548 6.26013 8.65038 7.00018C8.65038 7.79583 8.96645 8.55889 9.52906 9.1215C10.0917 9.68411 10.8547 10.0002 11.6504 10.0002H18.9804C19.8511 10.0065 20.6956 9.70207 21.3621 9.1417C22.0286 8.58133 22.4735 7.80169 22.6168 6.9428C22.7602 6.08391 22.5926 5.20205 22.1442 4.4556C21.6958 3.70915 20.996 3.14703 20.1704 2.87018ZM18.9804 8.00018H11.6504C11.3852 8.00018 11.1308 7.89482 10.9433 7.70729C10.7557 7.51975 10.6504 7.2654 10.6504 7.00018C10.6504 6.73496 10.7557 6.48061 10.9433 6.29307C11.1308 6.10554 11.3852 6.00018 11.6504 6.00018C11.9156 6.00018 12.17 5.89482 12.3575 5.70729C12.545 5.51975 12.6504 5.2654 12.6504 5.00018C12.6423 4.28654 12.8889 3.59339 13.3459 3.04522C13.8029 2.49704 14.4404 2.12975 15.1439 2.0093C15.8473 1.88884 16.5707 2.02312 17.184 2.38801C17.7974 2.7529 18.2606 3.32451 18.4904 4.00018C18.5475 4.17202 18.6503 4.32511 18.7877 4.44311C18.925 4.56112 19.0919 4.6396 19.2704 4.67018C19.6614 4.73497 20.0161 4.93837 20.2695 5.24319C20.5229 5.54801 20.6581 5.93386 20.6504 6.33018C20.6504 6.54949 20.6072 6.76665 20.5233 6.96926C20.4393 7.17188 20.3163 7.35598 20.1613 7.51105C20.0062 7.66612 19.8221 7.78913 19.6195 7.87306C19.4169 7.95698 19.1997 8.00018 18.9804 8.00018ZM18.6504 12.0002C18.3852 12.0002 18.1308 12.1055 17.9433 12.2931C17.7557 12.4806 17.6504 12.735 17.6504 13.0002V16.0002C17.6504 16.2654 17.545 16.5198 17.3575 16.7073C17.17 16.8948 16.9156 17.0002 16.6504 17.0002H14.3904C14.1971 16.5053 13.8984 16.0584 13.5151 15.6906C13.1317 15.3228 12.6728 15.0428 12.1704 14.8702C11.7172 13.9085 10.9693 13.1163 10.0353 12.6086C9.10129 12.1008 8.02974 11.904 6.97626 12.0467C5.92278 12.1894 4.9422 12.6642 4.17689 13.4021C3.41158 14.14 2.90139 15.1026 2.72038 16.1502C2.04317 16.3728 1.46734 16.8292 1.09609 17.4378C0.724826 18.0463 0.582396 18.7672 0.694317 19.4712C0.806237 20.1752 1.16519 20.8164 1.70687 21.2798C2.24854 21.7432 2.93753 21.9986 3.65038 22.0002H10.9804C11.8366 22.0002 12.6657 21.7 13.3235 21.1519C13.9812 20.6037 14.426 19.8424 14.5804 19.0002H16.6504C17.446 19.0002 18.2091 18.6841 18.7717 18.1215C19.3343 17.5589 19.6504 16.7958 19.6504 16.0002V13.0002C19.6504 12.735 19.545 12.4806 19.3575 12.2931C19.17 12.1055 18.9156 12.0002 18.6504 12.0002ZM10.9804 20.0002H3.65038C3.38517 20.0002 3.13081 19.8948 2.94328 19.7073C2.75574 19.5198 2.65038 19.2654 2.65038 19.0002C2.65038 18.735 2.75574 18.4806 2.94328 18.2931C3.13081 18.1055 3.38517 18.0002 3.65038 18.0002C3.9156 18.0002 4.16995 17.8948 4.35749 17.7073C4.54503 17.5198 4.65038 17.2654 4.65038 17.0002C4.64231 16.2865 4.88893 15.5934 5.34594 15.0452C5.80295 14.497 6.44041 14.1298 7.14386 14.0093C7.84731 13.8888 8.57066 14.0231 9.18402 14.388C9.79738 14.7529 10.2606 15.3245 10.4904 16.0002C10.5475 16.172 10.6503 16.3251 10.7877 16.4431C10.925 16.5611 11.0919 16.6396 11.2704 16.6702C11.6614 16.735 12.0161 16.9384 12.2695 17.2432C12.5229 17.548 12.6581 17.9339 12.6504 18.3302C12.6504 18.5495 12.6072 18.7666 12.5233 18.9693C12.4393 19.1719 12.3163 19.356 12.1613 19.511C12.0062 19.6661 11.8221 19.7891 11.6195 19.8731C11.4169 19.957 11.1997 20.0002 10.9804 20.0002Z" fill="url(#paint0_linear_142_47)"/>
<defs>
<linearGradient id="paint0_linear_142_47" x1="11.6619" y1="0.0288086" x2="11.6619" y2="22.0002" gradientUnits="userSpaceOnUse">
<stop stop-color="#9C9AFF"/>
<stop offset="1" stop-color="#9C9AFF" stop-opacity="0"/>
</linearGradient>
</defs>
</svg>
