<svg width="44" height="57" viewBox="0 0 44 57" fill="none" xmlns="http://www.w3.org/2000/svg">
<path d="M10.1379 23.7875H10.6379V23.2875V12.075C10.6379 5.69372 15.8316 0.5 22.2129 0.5C28.5942 0.5 33.7879 5.69372 33.7879 12.075V23.2875V23.7875H34.2879H42.0504H42.5504V23.2875V22.0625H43.2754V26.2375H42.5504V25.0125V24.5125H42.0504H40.4635H39.9635V25.0125V30.0494C39.9635 38.9877 33.3347 46.3941 24.7301 47.6163L24.3004 47.6773V48.1113V51.75V52.25H24.8004H29.9754C31.5961 52.25 32.9254 53.5793 32.9254 55.2V56.425H11.5004V55.2C11.5004 53.5793 12.8297 52.25 14.4504 52.25H19.6254H20.1254V51.75V48.1113V47.6773L19.6957 47.6163C11.0911 46.3941 4.46226 38.9877 4.46226 30.0494V25.0125V24.5125H3.96226H2.37539H1.87539V25.0125V26.2375H1.15039V22.0625H1.87539V23.2875V23.7875H2.37539H10.1379ZM5.68726 24.5125H5.18726V25.0125V30.0494C5.18726 39.4626 12.7996 47.075 22.2129 47.075C31.6261 47.075 39.2385 39.4626 39.2385 30.0494V25.0125V24.5125H38.7385H34.2879H33.7879V25.0125V30.1875C33.7879 36.5688 28.5942 41.7625 22.2129 41.7625C15.8316 41.7625 10.6379 36.5688 10.6379 30.1875V25.0125V24.5125H10.1379H5.68726ZM21.3504 47.8H20.8504V48.3V51.75V52.25H21.3504H23.0754H23.5754V51.75V48.3V47.8H23.0754H21.3504ZM31.7004 55.7H32.2004V55.2C32.2004 53.9603 31.2151 52.975 29.9754 52.975H14.4504C13.2107 52.975 12.2254 53.9603 12.2254 55.2V55.7H12.7254H31.7004Z" stroke="#CECDFF"/>
</svg>
