<svg width="16" height="15" viewBox="0 0 16 15" fill="none" xmlns="http://www.w3.org/2000/svg">
<mask id="path-1-inside-1_47_730" fill="white">
<path d="M15.7833 5.4754C15.7355 5.33696 15.6486 5.21536 15.533 5.12534C15.4175 5.03533 15.2783 4.98077 15.1324 4.96829L10.8257 4.34007L8.89563 0.426967C8.83366 0.299 8.73689 0.191078 8.61641 0.115564C8.49593 0.0400506 8.35662 0 8.21444 0C8.07225 0 7.93294 0.0400506 7.81246 0.115564C7.69199 0.191078 7.59522 0.299 7.53324 0.426967L5.60318 4.3325L1.29649 4.96829C1.15641 4.9882 1.02471 5.04698 0.916345 5.13795C0.807979 5.22892 0.727283 5.34845 0.683413 5.48297C0.643257 5.61442 0.639653 5.75433 0.672989 5.88767C0.706326 6.02102 0.775343 6.14277 0.872635 6.23986L3.99858 9.2674L3.24169 13.5665C3.21467 13.7084 3.22882 13.8551 3.28247 13.9892C3.33611 14.1233 3.42702 14.2393 3.54445 14.3234C3.6589 14.4052 3.7939 14.4535 3.93428 14.4629C4.07466 14.4723 4.21487 14.4423 4.33918 14.3764L8.21444 12.3555L12.0746 14.384C12.1808 14.4439 12.3008 14.4752 12.4227 14.4748C12.5831 14.4754 12.7394 14.425 12.8693 14.331C12.9867 14.2469 13.0776 14.1309 13.1313 13.9968C13.1849 13.8627 13.1991 13.716 13.172 13.5741L12.4152 9.27497L15.5411 6.24743C15.6504 6.15484 15.7311 6.03315 15.774 5.89649C15.8169 5.75984 15.8201 5.61382 15.7833 5.4754ZM11.1285 8.50295C11.0397 8.58881 10.9733 8.69508 10.935 8.81249C10.8968 8.92991 10.8878 9.05491 10.909 9.17658L11.4539 12.3479L8.60802 10.8342C8.49851 10.7758 8.37635 10.7454 8.25228 10.7454C8.12822 10.7454 8.00605 10.7758 7.89654 10.8342L5.05065 12.3479L5.59561 9.17658C5.61675 9.05491 5.6078 8.92991 5.56954 8.81249C5.53129 8.69508 5.46488 8.58881 5.37611 8.50295L3.10545 6.23229L6.29194 5.77059C6.41456 5.75353 6.53112 5.70666 6.63141 5.63408C6.7317 5.56151 6.81265 5.46544 6.86718 5.3543L8.21444 2.47056L9.63738 5.36187C9.69191 5.47301 9.77287 5.56908 9.87315 5.64165C9.97344 5.71423 10.09 5.7611 10.2126 5.77816L13.3991 6.23986L11.1285 8.50295Z"/>
</mask>
<path d="M15.7833 5.4754L22.5482 3.67634L22.4829 3.43092L22.4 3.19088L15.7833 5.4754ZM15.1324 4.96829L14.122 11.895L14.3281 11.925L14.5357 11.9428L15.1324 4.96829ZM10.8257 4.34007L4.5478 7.43652L6.17509 10.7358L9.8153 11.2668L10.8257 4.34007ZM8.89563 0.426967L2.59563 3.4782L2.6066 3.50085L2.61774 3.52342L8.89563 0.426967ZM8.21444 0V-7V0ZM7.53324 0.426967L13.8088 3.52824L13.8211 3.50327L13.8332 3.4782L7.53324 0.426967ZM5.60318 4.3325L6.62549 11.2574L10.2538 10.7218L11.8787 7.43378L5.60318 4.3325ZM1.29649 4.96829L2.28153 11.8986L2.30018 11.896L2.3188 11.8932L1.29649 4.96829ZM0.683413 5.48297L-5.97163 3.31263L-5.99199 3.37506L-6.01118 3.43787L0.683413 5.48297ZM0.872635 6.23986L-4.07196 11.1948L-4.03492 11.2317L-3.99734 11.2681L0.872635 6.23986ZM3.99858 9.2674L10.8926 10.4811L11.5366 6.82317L8.86856 4.23915L3.99858 9.2674ZM3.24169 13.5665L10.1181 14.8759L10.1272 14.8282L10.1357 14.7802L3.24169 13.5665ZM3.54445 14.3234L-0.531995 20.014L-0.526521 20.0179L3.54445 14.3234ZM4.33918 14.3764L1.10246 8.16965L1.08126 8.1807L1.06014 8.1919L4.33918 14.3764ZM8.21444 12.3555L11.4707 6.15897L8.22686 4.45438L4.97772 6.14876L8.21444 12.3555ZM12.0746 14.384L15.514 8.28722L15.4231 8.23596L15.3308 8.18742L12.0746 14.384ZM12.4227 14.4748L12.4477 7.47483L12.4237 7.47474L12.3998 7.47482L12.4227 14.4748ZM12.8693 14.331L8.79285 8.6404L8.77851 8.65068L8.76422 8.66102L12.8693 14.331ZM13.172 13.5741L6.27807 14.7878L6.28651 14.8357L6.2956 14.8835L13.172 13.5741ZM12.4152 9.27497L7.54518 4.24672L4.87718 6.83074L5.52118 10.4887L12.4152 9.27497ZM15.5411 6.24743L11.0162 0.906488L10.8385 1.05709L10.6711 1.21917L15.5411 6.24743ZM11.1285 8.50295L15.9951 13.5344L16.0328 13.498L16.0699 13.461L11.1285 8.50295ZM10.909 9.17658L17.8078 7.99109L17.8056 7.97807L10.909 9.17658ZM11.4539 12.3479L8.16662 18.528L20.7705 25.2322L18.3528 11.1624L11.4539 12.3479ZM8.60802 10.8342L5.31802 17.0128L5.32073 17.0143L8.60802 10.8342ZM7.89654 10.8342L11.1838 17.0143L11.1865 17.0128L7.89654 10.8342ZM5.05065 12.3479L-1.84824 11.1624L-4.26596 25.2322L8.33794 18.528L5.05065 12.3479ZM5.59561 9.17658L-1.30104 7.97806L-1.30328 7.99109L5.59561 9.17658ZM5.37611 8.50295L0.426364 13.4527L0.46758 13.4939L0.509477 13.5344L5.37611 8.50295ZM3.10545 6.23229L2.10168 -0.69537L-11.7192 1.30717L-1.8443 11.182L3.10545 6.23229ZM6.29194 5.77059L5.32755 -1.16266L5.30786 -1.15992L5.28817 -1.15707L6.29194 5.77059ZM6.86718 5.3543L13.1516 8.43755L13.181 8.37766L13.2092 8.31723L6.86718 5.3543ZM8.21444 2.47056L14.495 -0.620412L8.05024 -13.7157L1.87243 -0.49237L8.21444 2.47056ZM9.63738 5.36187L15.9218 2.27862L15.918 2.2709L9.63738 5.36187ZM10.2126 5.77816L11.2164 -1.1495L11.1967 -1.15235L11.177 -1.15509L10.2126 5.77816ZM13.3991 6.23986L18.3406 11.1979L28.2526 1.31893L14.4029 -0.6878L13.3991 6.23986ZM22.4 3.19088C21.9102 1.77206 21.0191 0.525832 19.8351 -0.396663L11.231 10.6473C10.278 9.90488 9.56085 8.90186 9.16658 7.75992L22.4 3.19088ZM19.8351 -0.396663C18.651 -1.31915 17.2247 -1.87828 15.7291 -2.00623L14.5357 11.9428C13.332 11.8398 12.184 11.3898 11.231 10.6473L19.8351 -0.396663ZM16.1428 -1.95841L11.8361 -2.58662L9.8153 11.2668L14.122 11.895L16.1428 -1.95841ZM17.1036 1.24362L15.1735 -2.66948L2.61774 3.52342L4.5478 7.43652L17.1036 1.24362ZM15.1956 -2.62426C14.5605 -3.93571 13.5687 -5.04175 12.334 -5.81565L4.89879 6.04678C3.90504 5.4239 3.10684 4.53371 2.59563 3.4782L15.1956 -2.62426ZM12.334 -5.81565C11.0993 -6.58955 9.67161 -7 8.21444 -7V7C7.04163 7 5.89254 6.66965 4.89879 6.04678L12.334 -5.81565ZM8.21444 -7C6.75726 -7 5.32954 -6.58955 4.09484 -5.81565L11.5301 6.04678C10.5363 6.66965 9.38724 7 8.21444 7V-7ZM4.09484 -5.81565C2.86013 -5.04175 1.8684 -3.93571 1.23324 -2.62426L13.8332 3.4782C13.322 4.53371 12.5238 5.4239 11.5301 6.04678L4.09484 -5.81565ZM1.25772 -2.67431L-0.672339 1.23123L11.8787 7.43378L13.8088 3.52824L1.25772 -2.67431ZM4.58087 -2.59244L0.27418 -1.95666L2.3188 11.8932L6.62549 11.2574L4.58087 -2.59244ZM0.311448 -1.96206C-1.12418 -1.75801 -2.47386 -1.15563 -3.58445 -0.223288L5.41714 10.4992C4.52329 11.2496 3.437 11.7344 2.28153 11.8986L0.311448 -1.96206ZM-3.58445 -0.223288C-4.69503 0.709056 -5.52204 1.93403 -5.97163 3.31263L7.33846 7.65332C6.97661 8.76287 6.31099 9.74879 5.41714 10.4992L-3.58445 -0.223288ZM-6.01118 3.43787C-6.42272 4.78504 -6.45965 6.21885 -6.11801 7.58542L7.46399 4.18992C7.73896 5.28981 7.70923 6.4438 7.37801 7.52807L-6.01118 3.43787ZM-6.11801 7.58542C-5.77637 8.95199 -5.06905 10.1997 -4.07196 11.1948L5.81723 1.28496C6.61973 2.0858 7.18902 3.09004 7.46399 4.18992L-6.11801 7.58542ZM-3.99734 11.2681L-0.8714 14.2957L8.86856 4.23915L5.74261 1.21161L-3.99734 11.2681ZM-2.8954 8.05368L-3.65228 12.3528L10.1357 14.7802L10.8926 10.4811L-2.8954 8.05368ZM-3.63475 12.2571C-3.91167 13.7113 -3.76667 15.2144 -3.21687 16.5889L9.7818 11.3895C10.2243 12.4957 10.341 13.7055 10.1181 14.8759L-3.63475 12.2571ZM-3.21687 16.5889C-2.66708 17.9634 -1.73545 19.1519 -0.531993 20.014L7.62088 8.63283C8.58949 9.32669 9.3393 10.2832 9.7818 11.3895L-3.21687 16.5889ZM-0.526521 20.0179C0.646461 20.8565 2.02995 21.3515 3.46864 21.4474L4.39991 7.4784C5.55784 7.55559 6.67134 7.954 7.61541 8.62892L-0.526521 20.0179ZM3.46864 21.4474C4.90734 21.5433 6.3443 21.2363 7.61821 20.5609L1.06014 8.1919C2.08545 7.64828 3.24198 7.4012 4.39991 7.4784L3.46864 21.4474ZM7.5759 20.5831L11.4512 18.5622L4.97772 6.14876L1.10246 8.16965L7.5759 20.5831ZM4.95822 18.552L8.81834 20.5805L15.3308 8.18742L11.4707 6.15897L4.95822 18.552ZM8.63511 20.4807C9.79774 21.1366 11.1108 21.4791 12.4456 21.4747L12.3998 7.47482C13.4907 7.47125 14.5638 7.75119 15.514 8.28722L8.63511 20.4807ZM12.3978 21.4747C14.0409 21.4806 15.6434 20.9645 16.9744 20.0009L8.76422 8.66102C9.83543 7.88546 11.1252 7.47012 12.4477 7.47483L12.3978 21.4747ZM16.9457 20.0216C18.1492 19.1595 19.0808 17.971 19.6306 16.5965L6.63193 11.397C7.07443 10.2908 7.82425 9.33426 8.79285 8.6404L16.9457 20.0216ZM19.6306 16.5965C20.1804 15.222 20.3254 13.7189 20.0485 12.2647L6.2956 14.8835C6.07273 13.7131 6.18943 12.5033 6.63193 11.397L19.6306 16.5965ZM20.066 12.3604L19.3091 8.06124L5.52118 10.4887L6.27807 14.7878L20.066 12.3604ZM17.2851 14.3032L20.4111 11.2757L10.6711 1.21917L7.54518 4.24672L17.2851 14.3032ZM20.066 11.5884C21.1859 10.6395 22.0137 9.39241 22.453 7.99188L9.095 3.80111C9.44864 2.67389 10.1148 1.67015 11.0162 0.906488L20.066 11.5884ZM22.453 7.99188C22.8924 6.59133 22.9254 5.09487 22.5482 3.67634L9.01844 7.27446C8.71481 6.13276 8.74136 4.92834 9.095 3.80111L22.453 7.99188ZM6.26182 3.47146C5.35212 4.35135 4.67153 5.44047 4.27943 6.64382L17.5906 10.9812C17.275 11.9497 16.7273 12.8263 15.9951 13.5344L6.26182 3.47146ZM4.27943 6.64382C3.88733 7.84716 3.79563 9.12817 4.01232 10.3751L17.8056 7.97807C17.98 8.98165 17.9062 10.0127 17.5906 10.9812L4.27943 6.64382ZM4.01007 10.3621L4.55503 13.5334L18.3528 11.1624L17.8078 7.99109L4.01007 10.3621ZM14.7412 6.16783L11.8953 4.65405L5.32073 17.0143L8.16662 18.528L14.7412 6.16783ZM11.898 4.65549C10.7757 4.05791 9.52377 3.74535 8.25228 3.74535V17.7453C7.22892 17.7453 6.22127 17.4938 5.31802 17.0128L11.898 4.65549ZM8.25228 3.74535C6.98079 3.74535 5.72881 4.05791 4.60654 4.65549L11.1865 17.0128C10.2833 17.4938 9.27564 17.7453 8.25228 17.7453V3.74535ZM4.60925 4.65405L1.76336 6.16783L8.33794 18.528L11.1838 17.0143L4.60925 4.65405ZM11.9495 13.5334L12.4945 10.3621L-1.30328 7.99109L-1.84824 11.1624L11.9495 13.5334ZM12.4922 10.3751C12.7089 9.12817 12.6172 7.84716 12.2251 6.64382L-1.08604 10.9812C-1.40162 10.0127 -1.47543 8.98165 -1.30103 7.97807L12.4922 10.3751ZM12.2251 6.64382C11.833 5.44047 11.1524 4.35135 10.2427 3.47146L0.509477 13.5344C-0.22269 12.8263 -0.77046 11.9497 -1.08604 10.9812L12.2251 6.64382ZM10.3259 3.5532L8.0552 1.28254L-1.8443 11.182L0.426364 13.4527L10.3259 3.5532ZM4.10922 13.1599L7.29571 12.6982L5.28817 -1.15707L2.10168 -0.69537L4.10922 13.1599ZM7.25634 12.7038C8.51296 12.529 9.70751 12.0487 10.7353 11.3049L2.52753 -0.0367324C3.35473 -0.635366 4.31616 -1.02198 5.32755 -1.16266L7.25634 12.7038ZM10.7353 11.3049C11.7631 10.5611 12.5928 9.57655 13.1516 8.43755L0.582787 2.27105C1.03255 1.35432 1.70031 0.561912 2.52753 -0.0367324L10.7353 11.3049ZM13.2092 8.31723L14.5564 5.43349L1.87243 -0.49237L0.525172 2.39137L13.2092 8.31723ZM1.93384 5.56153L3.35679 8.45284L15.918 2.2709L14.495 -0.620412L1.93384 5.56153ZM3.35299 8.44512C3.91182 9.58413 4.74149 10.5687 5.76927 11.3125L13.977 -0.0291634C14.8042 0.569475 15.472 1.36188 15.9218 2.27862L3.35299 8.44512ZM5.76927 11.3125C6.79707 12.0563 7.99163 12.5366 9.24823 12.7114L11.177 -1.15509C12.1884 -1.01442 13.1498 -0.627812 13.977 -0.0291634L5.76927 11.3125ZM9.20885 12.7058L12.3953 13.1675L14.4029 -0.6878L11.2164 -1.1495L9.20885 12.7058ZM8.45763 1.28185L6.18697 3.54494L16.0699 13.461L18.3406 11.1979L8.45763 1.28185Z" fill="#F1C733" mask="url(#path-1-inside-1_47_730)"/>
</svg>
