<svg width="52" height="55" viewBox="0 0 52 55" fill="none" xmlns="http://www.w3.org/2000/svg">
<mask id="path-1-inside-1_47_723" fill="white">
<path d="M13.0504 0.649994C6.21142 0.649994 0.650391 6.21102 0.650391 13.05C0.650391 19.889 6.21142 25.45 13.0504 25.45C13.5763 25.45 14.0916 25.4063 14.6004 25.3425V37.7365C13.6313 37.3511 12.6068 37.075 11.5004 37.075C6.80125 37.075 2.97539 40.9009 2.97539 45.6C2.97539 50.2991 6.80125 54.125 11.5004 54.125C16.1995 54.125 20.0254 50.2991 20.0254 45.6V23.296C21.2822 22.438 22.3681 21.3533 23.2359 20.1037L45.6004 18.1163V34.6365C44.6314 34.2509 43.6065 33.975 42.5004 33.975C37.8013 33.975 33.9754 37.8009 33.9754 42.5C33.9754 47.1991 37.8013 51.025 42.5004 51.025C47.1995 51.025 51.0254 47.1991 51.0254 42.5V4.45234L23.7884 6.87421C21.6443 3.1601 17.6397 0.649994 13.0504 0.649994ZM13.0504 2.19999C19.0516 2.19999 23.9004 7.04877 23.9004 13.05C23.9004 19.0512 19.0516 23.9 13.0504 23.9C7.04916 23.9 2.20039 19.0512 2.20039 13.05C2.20039 7.04877 7.04916 2.19999 13.0504 2.19999ZM49.4754 6.14765V42.5C49.4754 46.3615 46.3619 49.475 42.5004 49.475C38.6389 49.475 35.5254 46.3615 35.5254 42.5C35.5254 38.6385 38.6389 35.525 42.5004 35.525C43.7735 35.525 44.9573 35.8702 45.9864 36.4665L47.1504 37.1401V16.4225L24.1895 18.4644C24.9891 16.8259 25.4504 14.9931 25.4504 13.05C25.4504 11.3919 25.1167 9.81199 24.524 8.36518L49.4754 6.14765ZM46.3754 9.94999C46.1698 9.94999 45.9727 10.0316 45.8274 10.177C45.682 10.3223 45.6004 10.5195 45.6004 10.725C45.6004 10.9305 45.682 11.1277 45.8274 11.273C45.9727 11.4183 46.1698 11.5 46.3754 11.5C46.5809 11.5 46.7781 11.4183 46.9234 11.273C47.0687 11.1277 47.1504 10.9305 47.1504 10.725C47.1504 10.5195 47.0687 10.3223 46.9234 10.177C46.7781 10.0316 46.5809 9.94999 46.3754 9.94999ZM46.3754 13.05C46.1698 13.05 45.9727 13.1316 45.8274 13.277C45.682 13.4223 45.6004 13.6195 45.6004 13.825C45.6004 14.0305 45.682 14.2277 45.8274 14.373C45.9727 14.5183 46.1698 14.6 46.3754 14.6C46.5809 14.6 46.7781 14.5183 46.9234 14.373C47.0687 14.2277 47.1504 14.0305 47.1504 13.825C47.1504 13.6195 47.0687 13.4223 46.9234 13.277C46.7781 13.1316 46.5809 13.05 46.3754 13.05ZM18.4754 24.1831V45.6C18.4754 49.4615 15.3619 52.575 11.5004 52.575C7.63888 52.575 4.52539 49.4615 4.52539 45.6C4.52539 41.7385 7.63888 38.625 11.5004 38.625C12.7735 38.625 13.9587 38.9693 14.9879 39.565L16.1504 40.2386V25.0413C16.9609 24.8316 17.7378 24.5439 18.4754 24.1831ZM37.8504 41.725C37.4226 41.725 37.0754 42.0722 37.0754 42.5C37.0754 42.9278 37.4226 43.275 37.8504 43.275C38.2782 43.275 38.6254 42.9278 38.6254 42.5C38.6254 42.0722 38.2782 41.725 37.8504 41.725ZM47.1504 41.725C46.7226 41.725 46.3754 42.0722 46.3754 42.5C46.3754 42.9278 46.7226 43.275 47.1504 43.275C47.5782 43.275 47.9254 42.9278 47.9254 42.5C47.9254 42.0722 47.5782 41.725 47.1504 41.725ZM6.85039 44.825C6.42259 44.825 6.07539 45.1722 6.07539 45.6C6.07539 46.0278 6.42259 46.375 6.85039 46.375C7.27819 46.375 7.62539 46.0278 7.62539 45.6C7.62539 45.1722 7.27819 44.825 6.85039 44.825ZM16.1504 44.825C15.7226 44.825 15.3754 45.1722 15.3754 45.6C15.3754 46.0278 15.7226 46.375 16.1504 46.375C16.5782 46.375 16.9254 46.0278 16.9254 45.6C16.9254 45.1722 16.5782 44.825 16.1504 44.825ZM45.7881 45.0127C45.5897 45.0127 45.3913 45.0886 45.2401 45.2397C44.9371 45.5428 44.9371 46.0334 45.2401 46.3356C45.5432 46.6387 46.0338 46.6387 46.336 46.3356C46.6391 46.0326 46.6391 45.542 46.336 45.2397C46.1849 45.0886 45.9865 45.0127 45.7881 45.0127ZM39.2112 45.0142C39.013 45.0142 38.8147 45.0886 38.6632 45.2397C38.3602 45.5428 38.3602 46.0334 38.6632 46.3356C38.9663 46.6387 39.4569 46.6387 39.7591 46.3356C40.0622 46.0326 40.0622 45.542 39.7591 45.2397C39.6076 45.0886 39.4094 45.0142 39.2112 45.0142ZM42.5004 46.375C42.0726 46.375 41.7254 46.7222 41.7254 47.15C41.7254 47.5778 42.0726 47.925 42.5004 47.925C42.9282 47.925 43.2754 47.5778 43.2754 47.15C43.2754 46.7222 42.9282 46.375 42.5004 46.375ZM8.21269 48.1127C8.01429 48.1127 7.81587 48.1882 7.66475 48.3397C7.36172 48.6428 7.36172 49.1334 7.66475 49.4356C7.96777 49.7387 8.45839 49.7387 8.76064 49.4356C9.06367 49.1326 9.06367 48.642 8.76064 48.3397C8.60952 48.1882 8.4111 48.1127 8.21269 48.1127ZM14.7881 48.1127C14.5898 48.1127 14.3913 48.1886 14.2401 48.3397C13.9371 48.6428 13.9371 49.1334 14.2401 49.4356C14.5432 49.7387 15.0338 49.7387 15.336 49.4356C15.6383 49.1326 15.6391 48.642 15.336 48.3397C15.1845 48.1886 14.9864 48.1127 14.7881 48.1127ZM11.5004 49.475C11.0726 49.475 10.7254 49.8222 10.7254 50.25C10.7254 50.6778 11.0726 51.025 11.5004 51.025C11.9282 51.025 12.2754 50.6778 12.2754 50.25C12.2754 49.8222 11.9282 49.475 11.5004 49.475Z"/>
</mask>
<path d="M13.0504 0.649994C6.21142 0.649994 0.650391 6.21102 0.650391 13.05C0.650391 19.889 6.21142 25.45 13.0504 25.45C13.5763 25.45 14.0916 25.4063 14.6004 25.3425V37.7365C13.6313 37.3511 12.6068 37.075 11.5004 37.075C6.80125 37.075 2.97539 40.9009 2.97539 45.6C2.97539 50.2991 6.80125 54.125 11.5004 54.125C16.1995 54.125 20.0254 50.2991 20.0254 45.6V23.296C21.2822 22.438 22.3681 21.3533 23.2359 20.1037L45.6004 18.1163V34.6365C44.6314 34.2509 43.6065 33.975 42.5004 33.975C37.8013 33.975 33.9754 37.8009 33.9754 42.5C33.9754 47.1991 37.8013 51.025 42.5004 51.025C47.1995 51.025 51.0254 47.1991 51.0254 42.5V4.45234L23.7884 6.87421C21.6443 3.1601 17.6397 0.649994 13.0504 0.649994ZM13.0504 2.19999C19.0516 2.19999 23.9004 7.04877 23.9004 13.05C23.9004 19.0512 19.0516 23.9 13.0504 23.9C7.04916 23.9 2.20039 19.0512 2.20039 13.05C2.20039 7.04877 7.04916 2.19999 13.0504 2.19999ZM49.4754 6.14765V42.5C49.4754 46.3615 46.3619 49.475 42.5004 49.475C38.6389 49.475 35.5254 46.3615 35.5254 42.5C35.5254 38.6385 38.6389 35.525 42.5004 35.525C43.7735 35.525 44.9573 35.8702 45.9864 36.4665L47.1504 37.1401V16.4225L24.1895 18.4644C24.9891 16.8259 25.4504 14.9931 25.4504 13.05C25.4504 11.3919 25.1167 9.81199 24.524 8.36518L49.4754 6.14765ZM46.3754 9.94999C46.1698 9.94999 45.9727 10.0316 45.8274 10.177C45.682 10.3223 45.6004 10.5195 45.6004 10.725C45.6004 10.9305 45.682 11.1277 45.8274 11.273C45.9727 11.4183 46.1698 11.5 46.3754 11.5C46.5809 11.5 46.7781 11.4183 46.9234 11.273C47.0687 11.1277 47.1504 10.9305 47.1504 10.725C47.1504 10.5195 47.0687 10.3223 46.9234 10.177C46.7781 10.0316 46.5809 9.94999 46.3754 9.94999ZM46.3754 13.05C46.1698 13.05 45.9727 13.1316 45.8274 13.277C45.682 13.4223 45.6004 13.6195 45.6004 13.825C45.6004 14.0305 45.682 14.2277 45.8274 14.373C45.9727 14.5183 46.1698 14.6 46.3754 14.6C46.5809 14.6 46.7781 14.5183 46.9234 14.373C47.0687 14.2277 47.1504 14.0305 47.1504 13.825C47.1504 13.6195 47.0687 13.4223 46.9234 13.277C46.7781 13.1316 46.5809 13.05 46.3754 13.05ZM18.4754 24.1831V45.6C18.4754 49.4615 15.3619 52.575 11.5004 52.575C7.63888 52.575 4.52539 49.4615 4.52539 45.6C4.52539 41.7385 7.63888 38.625 11.5004 38.625C12.7735 38.625 13.9587 38.9693 14.9879 39.565L16.1504 40.2386V25.0413C16.9609 24.8316 17.7378 24.5439 18.4754 24.1831ZM37.8504 41.725C37.4226 41.725 37.0754 42.0722 37.0754 42.5C37.0754 42.9278 37.4226 43.275 37.8504 43.275C38.2782 43.275 38.6254 42.9278 38.6254 42.5C38.6254 42.0722 38.2782 41.725 37.8504 41.725ZM47.1504 41.725C46.7226 41.725 46.3754 42.0722 46.3754 42.5C46.3754 42.9278 46.7226 43.275 47.1504 43.275C47.5782 43.275 47.9254 42.9278 47.9254 42.5C47.9254 42.0722 47.5782 41.725 47.1504 41.725ZM6.85039 44.825C6.42259 44.825 6.07539 45.1722 6.07539 45.6C6.07539 46.0278 6.42259 46.375 6.85039 46.375C7.27819 46.375 7.62539 46.0278 7.62539 45.6C7.62539 45.1722 7.27819 44.825 6.85039 44.825ZM16.1504 44.825C15.7226 44.825 15.3754 45.1722 15.3754 45.6C15.3754 46.0278 15.7226 46.375 16.1504 46.375C16.5782 46.375 16.9254 46.0278 16.9254 45.6C16.9254 45.1722 16.5782 44.825 16.1504 44.825ZM45.7881 45.0127C45.5897 45.0127 45.3913 45.0886 45.2401 45.2397C44.9371 45.5428 44.9371 46.0334 45.2401 46.3356C45.5432 46.6387 46.0338 46.6387 46.336 46.3356C46.6391 46.0326 46.6391 45.542 46.336 45.2397C46.1849 45.0886 45.9865 45.0127 45.7881 45.0127ZM39.2112 45.0142C39.013 45.0142 38.8147 45.0886 38.6632 45.2397C38.3602 45.5428 38.3602 46.0334 38.6632 46.3356C38.9663 46.6387 39.4569 46.6387 39.7591 46.3356C40.0622 46.0326 40.0622 45.542 39.7591 45.2397C39.6076 45.0886 39.4094 45.0142 39.2112 45.0142ZM42.5004 46.375C42.0726 46.375 41.7254 46.7222 41.7254 47.15C41.7254 47.5778 42.0726 47.925 42.5004 47.925C42.9282 47.925 43.2754 47.5778 43.2754 47.15C43.2754 46.7222 42.9282 46.375 42.5004 46.375ZM8.21269 48.1127C8.01429 48.1127 7.81587 48.1882 7.66475 48.3397C7.36172 48.6428 7.36172 49.1334 7.66475 49.4356C7.96777 49.7387 8.45839 49.7387 8.76064 49.4356C9.06367 49.1326 9.06367 48.642 8.76064 48.3397C8.60952 48.1882 8.4111 48.1127 8.21269 48.1127ZM14.7881 48.1127C14.5898 48.1127 14.3913 48.1886 14.2401 48.3397C13.9371 48.6428 13.9371 49.1334 14.2401 49.4356C14.5432 49.7387 15.0338 49.7387 15.336 49.4356C15.6383 49.1326 15.6391 48.642 15.336 48.3397C15.1845 48.1886 14.9864 48.1127 14.7881 48.1127ZM11.5004 49.475C11.0726 49.475 10.7254 49.8222 10.7254 50.25C10.7254 50.6778 11.0726 51.025 11.5004 51.025C11.9282 51.025 12.2754 50.6778 12.2754 50.25C12.2754 49.8222 11.9282 49.475 11.5004 49.475Z" stroke="#CECDFF" stroke-width="14" mask="url(#path-1-inside-1_47_723)"/>
</svg>
