<svg width="16" height="16" viewBox="0 0 16 16" fill="none" xmlns="http://www.w3.org/2000/svg">
<mask id="path-1-inside-1_214_72" fill="white">
<path d="M15.6513 6.31927C15.6035 6.18083 15.5165 6.05923 15.401 5.96922C15.2855 5.8792 15.1463 5.82464 15.0004 5.81216L10.6937 5.18394L8.76361 1.27084C8.70164 1.14287 8.60487 1.03495 8.48439 0.959436C8.36391 0.883923 8.2246 0.843872 8.08242 0.843872C7.94023 0.843872 7.80092 0.883923 7.68044 0.959436C7.55997 1.03495 7.4632 1.14287 7.40122 1.27084L5.47116 5.17637L1.16447 5.81216C1.02439 5.83207 0.892693 5.89085 0.784326 5.98182C0.67596 6.0728 0.595263 6.19232 0.551394 6.32684C0.511238 6.45829 0.507634 6.5982 0.54097 6.73154C0.574307 6.86489 0.643324 6.98664 0.740616 7.08373L3.86656 10.1113L3.10967 14.4104C3.08265 14.5523 3.0968 14.699 3.15045 14.8331C3.20409 14.9672 3.295 15.0832 3.41243 15.1673C3.52688 15.2491 3.66188 15.2974 3.80226 15.3068C3.94264 15.3161 4.08285 15.2862 4.20716 15.2203L8.08242 13.1994L11.9425 15.2278C12.0488 15.2878 12.1687 15.3191 12.2907 15.3187C12.451 15.3192 12.6074 15.2689 12.7373 15.1748C12.8547 15.0907 12.9456 14.9748 12.9993 14.8406C13.0529 14.7065 13.067 14.5599 13.04 14.418L12.2831 10.1188L15.4091 7.0913C15.5184 6.99872 15.5991 6.87703 15.642 6.74037C15.6849 6.60371 15.6881 6.45769 15.6513 6.31927ZM10.9964 9.34682C10.9077 9.43268 10.8413 9.53895 10.803 9.65637C10.7647 9.77378 10.7558 9.89878 10.7769 10.0205L11.3219 13.1918L8.476 11.678C8.36649 11.6197 8.24433 11.5892 8.12026 11.5892C7.9962 11.5892 7.87403 11.6197 7.76452 11.678L4.91863 13.1918L5.46359 10.0205C5.48473 9.89878 5.47579 9.77378 5.43753 9.65637C5.39927 9.53895 5.33286 9.43268 5.24409 9.34682L2.97343 7.07616L6.15993 6.61446C6.28254 6.5974 6.3991 6.55053 6.49939 6.47796C6.59968 6.40538 6.68063 6.30931 6.73516 6.19817L8.08242 3.31443L9.50536 6.20574C9.55989 6.31688 9.64085 6.41295 9.74114 6.48553C9.84142 6.5581 9.95798 6.60497 10.0806 6.62203L13.2671 7.08373L10.9964 9.34682Z"/>
</mask>
<path d="M15.6513 6.31927L22.4161 4.52021L22.3509 4.2748L22.268 4.03475L15.6513 6.31927ZM15.0004 5.81216L13.99 12.7389L14.1961 12.7689L14.4036 12.7867L15.0004 5.81216ZM10.6937 5.18394L4.41578 8.28039L6.04307 11.5796L9.68328 12.1106L10.6937 5.18394ZM8.76361 1.27084L2.46361 4.32207L2.47458 4.34472L2.48572 4.36729L8.76361 1.27084ZM8.08242 0.843872V-6.15613V0.843872ZM7.40122 1.27084L13.6767 4.37211L13.6891 4.34714L13.7012 4.32207L7.40122 1.27084ZM5.47116 5.17637L6.49347 12.1013L10.1218 11.5657L11.7467 8.27765L5.47116 5.17637ZM1.16447 5.81216L2.14952 12.7425L2.16816 12.7399L2.18678 12.7371L1.16447 5.81216ZM0.551394 6.32684L-6.10365 4.1565L-6.12401 4.21893L-6.1432 4.28174L0.551394 6.32684ZM0.740616 7.08373L-4.20398 12.0386L-4.16694 12.0756L-4.12936 12.112L0.740616 7.08373ZM3.86656 10.1113L10.7605 11.325L11.4045 7.66705L8.73654 5.08302L3.86656 10.1113ZM3.10967 14.4104L9.98611 15.7198L9.99521 15.672L10.0036 15.6241L3.10967 14.4104ZM3.41243 15.1673L-0.664014 20.8579L-0.65854 20.8618L3.41243 15.1673ZM4.20716 15.2203L0.970438 9.01352L0.949243 9.02457L0.928123 9.03577L4.20716 15.2203ZM8.08242 13.1994L11.3386 7.00284L8.09484 5.29826L4.8457 6.99263L8.08242 13.1994ZM11.9425 15.2278L15.382 9.13109L15.2911 9.07983L15.1988 9.0313L11.9425 15.2278ZM12.2907 15.3187L12.3156 8.3187L12.2917 8.31862L12.2678 8.31869L12.2907 15.3187ZM12.7373 15.1748L8.66083 9.48427L8.64649 9.49455L8.6322 9.50489L12.7373 15.1748ZM13.04 14.418L6.14605 15.6317L6.15449 15.6796L6.16359 15.7274L13.04 14.418ZM12.2831 10.1188L7.41316 5.09059L4.74516 7.67461L5.38916 11.3326L12.2831 10.1188ZM15.4091 7.0913L10.8842 1.75036L10.7065 1.90096L10.5391 2.06305L15.4091 7.0913ZM10.9964 9.34682L15.8631 14.3783L15.9008 14.3418L15.9379 14.3048L10.9964 9.34682ZM10.7769 10.0204L17.6758 8.83496L17.6736 8.82194L10.7769 10.0204ZM11.3219 13.1918L8.0346 19.3719L20.6385 26.0761L18.2208 12.0063L11.3219 13.1918ZM8.476 11.678L5.186 17.8567L5.18871 17.8581L8.476 11.678ZM7.76452 11.678L11.0518 17.8581L11.0545 17.8567L7.76452 11.678ZM4.91863 13.1918L-1.98025 12.0063L-4.39798 26.0761L8.20592 19.3719L4.91863 13.1918ZM5.46359 10.0204L-1.43306 8.82194L-1.4353 8.83496L5.46359 10.0204ZM5.24409 9.34682L0.294345 14.2966L0.335561 14.3378L0.377458 14.3783L5.24409 9.34682ZM2.97343 7.07616L1.96966 0.148502L-11.8512 2.15105L-1.97632 12.0259L2.97343 7.07616ZM6.15992 6.61446L5.19553 -0.31879L5.17584 -0.31605L5.15616 -0.313198L6.15992 6.61446ZM6.73516 6.19817L13.0196 9.28142L13.0489 9.22154L13.0772 9.1611L6.73516 6.19817ZM8.08242 3.31443L14.363 0.22346L7.91823 -12.8718L1.74041 0.351502L8.08242 3.31443ZM9.50536 6.20574L15.7898 3.12249L15.786 3.11477L9.50536 6.20574ZM10.0806 6.62203L11.0844 -0.30563L11.0647 -0.308481L11.045 -0.311221L10.0806 6.62203ZM13.2671 7.08373L18.2086 12.0417L28.1205 2.1628L14.2709 0.156072L13.2671 7.08373ZM22.268 4.03475C21.7781 2.61593 20.8871 1.3697 19.703 0.447209L11.099 11.4912C10.146 10.7488 9.42883 9.74573 9.03456 8.60379L22.268 4.03475ZM19.703 0.447209C18.5189 -0.475281 17.0926 -1.03441 15.5971 -1.16236L14.4036 12.7867C13.2 12.6837 12.052 12.2337 11.099 11.4912L19.703 0.447209ZM16.0108 -1.11454L11.7041 -1.74275L9.68328 12.1106L13.99 12.7389L16.0108 -1.11454ZM16.9716 2.08749L15.0415 -1.82561L2.48572 4.36729L4.41578 8.28039L16.9716 2.08749ZM15.0636 -1.78039C14.4284 -3.09184 13.4367 -4.19788 12.202 -4.97178L4.76677 6.89065C3.77302 6.26778 2.97482 5.37758 2.46361 4.32207L15.0636 -1.78039ZM12.202 -4.97178C10.9673 -5.74567 9.53959 -6.15613 8.08242 -6.15613V7.84387C6.90961 7.84387 5.76052 7.51352 4.76677 6.89065L12.202 -4.97178ZM8.08242 -6.15613C6.62524 -6.15613 5.19752 -5.74567 3.96282 -4.97178L11.3981 6.89065C10.4043 7.51352 9.25522 7.84387 8.08242 7.84387V-6.15613ZM3.96282 -4.97178C2.72812 -4.19788 1.73638 -3.09184 1.10122 -1.78039L13.7012 4.32207C13.19 5.37758 12.3918 6.26778 11.3981 6.89065L3.96282 -4.97178ZM1.1257 -1.83043L-0.804358 2.0751L11.7467 8.27765L13.6767 4.37211L1.1257 -1.83043ZM4.44885 -1.74857L0.142161 -1.11279L2.18678 12.7371L6.49347 12.1013L4.44885 -1.74857ZM0.179429 -1.11819C-1.2562 -0.914133 -2.60588 -0.311756 -3.71647 0.620584L5.28512 11.3431C4.39127 12.0935 3.30498 12.5783 2.14952 12.7425L0.179429 -1.11819ZM-3.71647 0.620584C-4.82705 1.55293 -5.65406 2.7779 -6.10365 4.1565L7.20644 8.49719C6.84459 9.60675 6.17897 10.5927 5.28512 11.3431L-3.71647 0.620584ZM-6.1432 4.28174C-6.55474 5.62891 -6.59167 7.06272 -6.25003 8.42929L7.33197 5.0338C7.60694 6.13368 7.57721 7.28768 7.24599 8.37194L-6.1432 4.28174ZM-6.25003 8.42929C-5.90839 9.79586 -5.20107 11.0436 -4.20398 12.0386L5.68521 2.12883C6.48772 2.92967 7.057 3.93392 7.33197 5.0338L-6.25003 8.42929ZM-4.12936 12.112L-1.00342 15.1395L8.73654 5.08302L5.61059 2.05548L-4.12936 12.112ZM-3.02741 8.89755L-3.7843 13.1967L10.0036 15.6241L10.7605 11.325L-3.02741 8.89755ZM-3.76677 13.101C-4.04369 14.5552 -3.89869 16.0583 -3.34889 17.4328L9.64978 12.2333C10.0923 13.3396 10.209 14.5494 9.98611 15.7198L-3.76677 13.101ZM-3.34889 17.4328C-2.7991 18.8073 -1.86747 19.9958 -0.664012 20.8579L7.48886 9.4767C8.45747 10.1706 9.20728 11.1271 9.64978 12.2333L-3.34889 17.4328ZM-0.65854 20.8618C0.514442 21.7003 1.89793 22.1953 3.33663 22.2913L4.26789 8.32227C5.42582 8.39946 6.53932 8.79787 7.48339 9.47279L-0.65854 20.8618ZM3.33663 22.2913C4.77532 22.3872 6.21228 22.0802 7.48619 21.4048L0.928123 9.03577C1.95343 8.49215 3.10996 8.24507 4.26789 8.32227L3.33663 22.2913ZM7.44388 21.427L11.3191 19.4061L4.8457 6.99263L0.970438 9.01352L7.44388 21.427ZM4.8262 19.3959L8.68632 21.4244L15.1988 9.0313L11.3386 7.00284L4.8262 19.3959ZM8.50309 21.3246C9.66572 21.9805 10.9788 22.323 12.3136 22.3186L12.2678 8.31869C13.3587 8.31512 14.4318 8.59506 15.382 9.13109L8.50309 21.3246ZM12.2658 22.3186C13.9089 22.3245 15.5114 21.8084 16.8423 20.8448L8.6322 9.50489C9.70341 8.72933 10.9932 8.31399 12.3156 8.3187L12.2658 22.3186ZM16.8137 20.8654C18.0172 20.0033 18.9488 18.8149 19.4986 17.4404L6.49991 12.2409C6.94241 11.1347 7.69223 10.1781 8.66083 9.48427L16.8137 20.8654ZM19.4986 17.4404C20.0484 16.0659 20.1934 14.5628 19.9165 13.1085L6.16359 15.7274C5.94071 14.557 6.05741 13.3472 6.49991 12.2409L19.4986 17.4404ZM19.934 13.2042L19.1771 8.90512L5.38916 11.3326L6.14605 15.6317L19.934 13.2042ZM17.1531 15.1471L20.2791 12.1196L10.5391 2.06305L7.41316 5.09059L17.1531 15.1471ZM19.9339 12.4322C21.0539 11.4834 21.8816 10.2363 22.321 8.83575L8.96298 4.64499C9.31662 3.51777 9.98283 2.51402 10.8842 1.75036L19.9339 12.4322ZM22.321 8.83575C22.7604 7.4352 22.7934 5.93874 22.4161 4.52021L8.88642 8.11834C8.58279 6.97663 8.60934 5.77221 8.96298 4.64499L22.321 8.83575ZM6.1298 4.31533C5.2201 5.19522 4.53951 6.28434 4.14741 7.48769L17.4586 11.825C17.143 12.7936 16.5952 13.6701 15.8631 14.3783L6.1298 4.31533ZM4.14741 7.48769C3.75531 8.69103 3.66361 9.97204 3.8803 11.219L17.6736 8.82194C17.848 9.82552 17.7742 10.8565 17.4586 11.825L4.14741 7.48769ZM3.87805 11.2059L4.42301 14.3773L18.2208 12.0063L17.6758 8.83496L3.87805 11.2059ZM14.6092 7.0117L11.7633 5.49792L5.18871 17.8581L8.0346 19.3719L14.6092 7.0117ZM11.766 5.49937C10.6437 4.90178 9.39175 4.58922 8.12026 4.58922V18.5892C7.0969 18.5892 6.08925 18.3377 5.186 17.8567L11.766 5.49937ZM8.12026 4.58922C6.84877 4.58922 5.59679 4.90178 4.47452 5.49937L11.0545 17.8567C10.1513 18.3377 9.14362 18.5892 8.12026 18.5892V4.58922ZM4.47723 5.49793L1.63134 7.0117L8.20592 19.3719L11.0518 17.8581L4.47723 5.49793ZM11.8175 14.3773L12.3625 11.2059L-1.4353 8.83496L-1.98025 12.0063L11.8175 14.3773ZM12.3602 11.219C12.5769 9.97204 12.4852 8.69103 12.0931 7.48769L-1.21806 11.825C-1.53364 10.8565 -1.60745 9.82552 -1.43305 8.82194L12.3602 11.219ZM12.0931 7.48769C11.701 6.28434 11.0204 5.19522 10.1107 4.31533L0.377458 14.3783C-0.354709 13.6701 -0.902479 12.7936 -1.21806 11.825L12.0931 7.48769ZM10.1938 4.39707L7.92318 2.12641L-1.97632 12.0259L0.294345 14.2966L10.1938 4.39707ZM3.9772 14.0038L7.16369 13.5421L5.15616 -0.313198L1.96966 0.148502L3.9772 14.0038ZM7.12432 13.5477C8.38094 13.3729 9.57549 12.8926 10.6033 12.1488L2.39551 0.80714C3.22271 0.208506 4.18414 -0.178108 5.19553 -0.31879L7.12432 13.5477ZM10.6033 12.1488C11.6311 11.405 12.4607 10.4204 13.0196 9.28142L0.450768 3.11492C0.900532 2.1982 1.56829 1.40578 2.39551 0.80714L10.6033 12.1488ZM13.0772 9.1611L14.4244 6.27736L1.74041 0.351502L0.393153 3.23524L13.0772 9.1611ZM1.80182 6.40541L3.22477 9.29671L15.786 3.11477L14.363 0.22346L1.80182 6.40541ZM3.22097 9.28899C3.7798 10.428 4.60947 11.4125 5.63725 12.1563L13.845 0.814709C14.6722 1.41335 15.34 2.20576 15.7898 3.12249L3.22097 9.28899ZM5.63725 12.1563C6.66506 12.9001 7.85961 13.3805 9.11621 13.5553L11.045 -0.311221C12.0564 -0.170543 13.0178 0.21606 13.845 0.814709L5.63725 12.1563ZM9.07683 13.5497L12.2633 14.0114L14.2709 0.156072L11.0844 -0.30563L9.07683 13.5497ZM8.32561 2.12573L6.05495 4.38882L15.9379 14.3048L18.2086 12.0417L8.32561 2.12573Z" fill="#5A57FF" mask="url(#path-1-inside-1_214_72)"/>
</svg>
