<svg width="48" height="50" viewBox="0 0 48 50" fill="none" xmlns="http://www.w3.org/2000/svg">
<mask id="path-1-inside-1_47_717" fill="white">
<path d="M47.9999 0L47.162 0.107909L38.373 1.23462L38.3642 1.23621C36.1531 1.5785 34.4999 3.64303 34.4999 6.0636V32.5555C33.0332 31.9186 31.4134 31.5947 29.6777 32.0049C26.5389 32.7467 24.0482 35.4747 23.4184 38.8905C22.333 44.7778 26.6751 49.9949 32.0082 49.6466C36.3214 49.3656 39.7499 45.144 39.7499 40.4949V12.0717L44.2631 11.2718L44.2675 11.2703C46.4198 10.8666 47.9999 8.83173 47.9999 6.46509V0ZM46.4999 1.82812V6.46509C46.4999 8.04982 45.457 9.39414 44.017 9.66748H44.0141L44.0112 9.66907L38.2499 10.691V40.4949C38.2499 44.2633 35.3623 47.8004 31.9189 48.0248C27.523 48.3119 23.987 44.1105 24.8906 39.2095C25.4008 36.4421 27.4508 34.1939 29.9985 33.5918C31.8057 33.1647 33.4843 33.5279 34.8749 34.3995L35.9999 35.1057V6.0636C35.9999 4.44127 37.0897 3.07877 38.5707 2.84692L46.4999 1.82812ZM8.24994 4.16406C8.15055 4.16254 8.05188 4.18243 7.95966 4.22258C7.86743 4.26273 7.78349 4.32233 7.71271 4.39793C7.64193 4.47353 7.58573 4.56361 7.54737 4.66295C7.50901 4.76228 7.48926 4.86889 7.48926 4.97656C7.48926 5.08424 7.50901 5.19084 7.54737 5.29018C7.58573 5.38951 7.64193 5.47959 7.71271 5.55519C7.78349 5.63079 7.86743 5.6904 7.95966 5.73054C8.05188 5.77069 8.15055 5.79059 8.24994 5.78906C8.34932 5.79059 8.448 5.77069 8.54022 5.73054C8.63245 5.6904 8.71639 5.63079 8.78717 5.55519C8.85794 5.47959 8.91415 5.38951 8.95251 5.29018C8.99087 5.19084 9.01062 5.08424 9.01062 4.97656C9.01062 4.86889 8.99087 4.76228 8.95251 4.66295C8.91415 4.56361 8.85794 4.47353 8.78717 4.39793C8.71639 4.32233 8.63245 4.26273 8.54022 4.22258C8.448 4.18243 8.34932 4.16254 8.24994 4.16406ZM11.2499 4.16406L10.6494 4.49097L10.5307 5.20666L10.9892 5.73828L11.2499 5.78906L11.8505 5.46216L11.9692 4.74646L11.5107 4.21484L11.2499 4.16406ZM14.2499 4.16406L13.6494 4.49097L13.5307 5.20666L13.9892 5.73828L14.2499 5.78906L14.8505 5.46216L14.9692 4.74646L14.5107 4.21484L14.2499 4.16406ZM17.2499 4.16406L16.6494 4.49097L16.5307 5.20666L16.9892 5.73828L17.2499 5.78906L17.8505 5.46216L17.9692 4.74646L17.5107 4.21484L17.2499 4.16406ZM20.2499 4.16406L19.6494 4.49097L19.5307 5.20666L19.9892 5.73828L20.2499 5.78906L20.8505 5.46216L20.9692 4.74646L20.5107 4.21484L20.2499 4.16406ZM23.2499 4.16406L22.6494 4.49097L22.5307 5.20666L22.9892 5.73828L23.2499 5.78906L23.8505 5.46216L23.9692 4.74646L23.5107 4.21484L23.2499 4.16406ZM26.2499 4.16406L25.6494 4.49097L25.5307 5.20666L25.9892 5.73828L26.2499 5.78906L26.8505 5.46216L26.9692 4.74646L26.5107 4.21484L26.2499 4.16406ZM29.2499 4.16406C29.1506 4.16254 29.0519 4.18243 28.9597 4.22258C28.8674 4.26273 28.7835 4.32233 28.7127 4.39793C28.6419 4.47353 28.5857 4.56361 28.5474 4.66295C28.509 4.76228 28.4893 4.86889 28.4893 4.97656C28.4893 5.08424 28.509 5.19084 28.5474 5.29018C28.5857 5.38951 28.6419 5.47959 28.7127 5.55519C28.7835 5.63079 28.8674 5.6904 28.9597 5.73054C29.0519 5.77069 29.1506 5.79059 29.2499 5.78906C29.3493 5.79059 29.448 5.77069 29.5402 5.73054C29.6324 5.6904 29.7164 5.63079 29.7872 5.55519C29.8579 5.47959 29.9141 5.38951 29.9525 5.29018C29.9909 5.19084 30.0106 5.08424 30.0106 4.97656C30.0106 4.86889 29.9909 4.76228 29.9525 4.66295C29.9141 4.56361 29.8579 4.47353 29.7872 4.39793C29.7164 4.32233 29.6324 4.26273 29.5402 4.22258C29.448 4.18243 29.3493 4.16254 29.2499 4.16406ZM16.1249 13.9141C16.0256 13.9125 15.9269 13.9324 15.8347 13.9726C15.7424 14.0127 15.6585 14.0723 15.5877 14.1479C15.5169 14.2235 15.4607 14.3136 15.4224 14.4129C15.384 14.5123 15.3643 14.6189 15.3643 14.7266C15.3643 14.8342 15.384 14.9408 15.4224 15.0402C15.4607 15.1395 15.5169 15.2296 15.5877 15.3052C15.6585 15.3808 15.7424 15.4404 15.8347 15.4805C15.9269 15.5207 16.0256 15.5406 16.1249 15.5391C16.2243 15.5406 16.323 15.5207 16.4152 15.4805C16.5074 15.4404 16.5914 15.3808 16.6622 15.3052C16.7329 15.2296 16.7891 15.1395 16.8275 15.0402C16.8659 14.9408 16.8856 14.8342 16.8856 14.7266C16.8856 14.6189 16.8659 14.5123 16.8275 14.4129C16.7891 14.3136 16.7329 14.2235 16.6622 14.1479C16.5914 14.0723 16.5074 14.0127 16.4152 13.9726C16.323 13.9324 16.2243 13.9125 16.1249 13.9141ZM19.4062 13.9141L18.8056 14.241L18.687 14.9567L19.1454 15.4883L19.4062 15.5391L20.0068 15.2122L20.1254 14.4965L19.6669 13.9648L19.4062 13.9141ZM22.6874 13.9141L22.0869 14.241L21.9682 14.9567L22.4267 15.4883L22.6874 15.5391L23.288 15.2122L23.4067 14.4965L22.9482 13.9648L22.6874 13.9141ZM25.9687 13.9141L25.3681 14.241L25.2495 14.9567L25.7079 15.4883L25.9687 15.5391L26.5693 15.2122L26.6879 14.4965L26.2294 13.9648L25.9687 13.9141ZM29.2499 13.9141C29.1506 13.9125 29.0519 13.9324 28.9597 13.9726C28.8674 14.0127 28.7835 14.0723 28.7127 14.1479C28.6419 14.2235 28.5857 14.3136 28.5474 14.4129C28.509 14.5123 28.4893 14.6189 28.4893 14.7266C28.4893 14.8342 28.509 14.9408 28.5474 15.0402C28.5857 15.1395 28.6419 15.2296 28.7127 15.3052C28.7835 15.3808 28.8674 15.4404 28.9597 15.4805C29.0519 15.5207 29.1506 15.5406 29.2499 15.5391C29.3493 15.5406 29.448 15.5207 29.5402 15.4805C29.6324 15.4404 29.7164 15.3808 29.7872 15.3052C29.8579 15.2296 29.9141 15.1395 29.9525 15.0402C29.9909 14.9408 30.0106 14.8342 30.0106 14.7266C30.0106 14.6189 29.9909 14.5123 29.9525 14.4129C29.9141 14.3136 29.8579 14.2235 29.7872 14.1479C29.7164 14.0723 29.6324 14.0127 29.5402 13.9726C29.448 13.9324 29.3493 13.9125 29.2499 13.9141ZM8.24994 23.6641C8.15055 23.6625 8.05188 23.6824 7.95966 23.7226C7.86743 23.7627 7.78349 23.8223 7.71271 23.8979C7.64193 23.9735 7.58573 24.0636 7.54737 24.1629C7.50901 24.2623 7.48926 24.3689 7.48926 24.4766C7.48926 24.5842 7.50901 24.6908 7.54737 24.7902C7.58573 24.8895 7.64193 24.9796 7.71271 25.0552C7.78349 25.1308 7.86743 25.1904 7.95966 25.2305C8.05188 25.2707 8.15055 25.2906 8.24994 25.2891C8.34932 25.2906 8.448 25.2707 8.54022 25.2305C8.63245 25.1904 8.71639 25.1308 8.78717 25.0552C8.85794 24.9796 8.91415 24.8895 8.95251 24.7902C8.99087 24.6908 9.01062 24.5842 9.01062 24.4766C9.01062 24.3689 8.99087 24.2623 8.95251 24.1629C8.91415 24.0636 8.85794 23.9735 8.78717 23.8979C8.71639 23.8223 8.63245 23.7627 8.54022 23.7226C8.448 23.6824 8.34932 23.6625 8.24994 23.6641ZM11.2499 23.6641L10.6494 23.991L10.5307 24.7067L10.9892 25.2383L11.2499 25.2891L11.8505 24.9622L11.9692 24.2465L11.5107 23.7148L11.2499 23.6641ZM14.2499 23.6641L13.6494 23.991L13.5307 24.7067L13.9892 25.2383L14.2499 25.2891L14.8505 24.9622L14.9692 24.2465L14.5107 23.7148L14.2499 23.6641ZM17.2499 23.6641L16.6494 23.991L16.5307 24.7067L16.9892 25.2383L17.2499 25.2891L17.8505 24.9622L17.9692 24.2465L17.5107 23.7148L17.2499 23.6641ZM20.2499 23.6641L19.6494 23.991L19.5307 24.7067L19.9892 25.2383L20.2499 25.2891L20.8505 24.9622L20.9692 24.2465L20.5107 23.7148L20.2499 23.6641ZM23.2499 23.6641L22.6494 23.991L22.5307 24.7067L22.9892 25.2383L23.2499 25.2891L23.8505 24.9622L23.9692 24.2465L23.5107 23.7148L23.2499 23.6641ZM26.2499 23.6641L25.6494 23.991L25.5307 24.7067L25.9892 25.2383L26.2499 25.2891L26.8505 24.9622L26.9692 24.2465L26.5107 23.7148L26.2499 23.6641ZM29.2499 23.6641C29.1506 23.6625 29.0519 23.6824 28.9597 23.7226C28.8674 23.7627 28.7835 23.8223 28.7127 23.8979C28.6419 23.9735 28.5857 24.0636 28.5474 24.1629C28.509 24.2623 28.4893 24.3689 28.4893 24.4766C28.4893 24.5842 28.509 24.6908 28.5474 24.7902C28.5857 24.8895 28.6419 24.9796 28.7127 25.0552C28.7835 25.1308 28.8674 25.1904 28.9597 25.2305C29.0519 25.2707 29.1506 25.2906 29.2499 25.2891C29.3493 25.2906 29.448 25.2707 29.5402 25.2305C29.6324 25.1904 29.7164 25.1308 29.7872 25.0552C29.8579 24.9796 29.9141 24.8895 29.9525 24.7902C29.9909 24.6908 30.0106 24.5842 30.0106 24.4766C30.0106 24.3689 29.9909 24.2623 29.9525 24.1629C29.9141 24.0636 29.8579 23.9735 29.7872 23.8979C29.7164 23.8223 29.6324 23.7627 29.5402 23.7226C29.448 23.6824 29.3493 23.6625 29.2499 23.6641ZM1.49994 33.4141C1.40056 33.4125 1.30188 33.4324 1.20966 33.4726C1.11743 33.5127 1.03349 33.5723 0.962713 33.6479C0.891936 33.7235 0.835734 33.8136 0.797373 33.9129C0.759012 34.0123 0.739258 34.1189 0.739258 34.2266C0.739258 34.3342 0.759012 34.4408 0.797373 34.5402C0.835734 34.6395 0.891936 34.7296 0.962713 34.8052C1.03349 34.8808 1.11743 34.9404 1.20966 34.9805C1.30188 35.0207 1.40056 35.0406 1.49994 35.0391C1.59932 35.0406 1.698 35.0207 1.79022 34.9805C1.88245 34.9404 1.96639 34.8808 2.03717 34.8052C2.10794 34.7296 2.16414 34.6395 2.20251 34.5402C2.24087 34.4408 2.26062 34.3342 2.26062 34.2266C2.26062 34.1189 2.24087 34.0123 2.20251 33.9129C2.16414 33.8136 2.10794 33.7235 2.03717 33.6479C1.96639 33.5723 1.88245 33.5127 1.79022 33.4726C1.698 33.4324 1.59932 33.4125 1.49994 33.4141ZM4.49994 33.4141L3.89935 33.741L3.7807 34.4567L4.2392 34.9883L4.49994 35.0391L5.10053 34.7122L5.21918 33.9965L4.76068 33.4648L4.49994 33.4141ZM7.49994 33.4141L6.89935 33.741L6.7807 34.4567L7.2392 34.9883L7.49994 35.0391L8.10052 34.7122L8.21918 33.9965L7.76068 33.4648L7.49994 33.4141ZM10.4999 33.4141L9.89935 33.741L9.7807 34.4567L10.2392 34.9883L10.4999 35.0391L11.1005 34.7122L11.2192 33.9965L10.7607 33.4648L10.4999 33.4141ZM13.4999 33.4141L12.8994 33.741L12.7807 34.4567L13.2392 34.9883L13.4999 35.0391L14.1005 34.7122L14.2192 33.9965L13.7607 33.4648L13.4999 33.4141ZM16.4999 33.4141L15.8994 33.741L15.7807 34.4567L16.2392 34.9883L16.4999 35.0391L17.1005 34.7122L17.2192 33.9965L16.7607 33.4648L16.4999 33.4141ZM19.4999 33.4141C19.4006 33.4125 19.3019 33.4324 19.2097 33.4726C19.1174 33.5127 19.0335 33.5723 18.9627 33.6479C18.8919 33.7235 18.8357 33.8136 18.7974 33.9129C18.759 34.0123 18.7393 34.1189 18.7393 34.2266C18.7393 34.3342 18.759 34.4408 18.7974 34.5402C18.8357 34.6395 18.8919 34.7296 18.9627 34.8052C19.0335 34.8808 19.1174 34.9404 19.2097 34.9805C19.3019 35.0207 19.4006 35.0406 19.4999 35.0391C19.5993 35.0406 19.698 35.0207 19.7902 34.9805C19.8824 34.9404 19.9664 34.8808 20.0372 34.8052C20.1079 34.7296 20.1641 34.6395 20.2025 34.5402C20.2409 34.4408 20.2606 34.3342 20.2606 34.2266C20.2606 34.1189 20.2409 34.0123 20.2025 33.9129C20.1641 33.8136 20.1079 33.7235 20.0372 33.6479C19.9664 33.5723 19.8824 33.5127 19.7902 33.4726C19.698 33.4324 19.5993 33.4125 19.4999 33.4141ZM35.9999 39.9141C35.801 39.9141 35.6103 39.9997 35.4696 40.152C35.329 40.3044 35.2499 40.5111 35.2499 40.7266C35.2499 40.942 35.329 41.1487 35.4696 41.3011C35.6103 41.4535 35.801 41.5391 35.9999 41.5391C36.1989 41.5391 36.3896 41.4535 36.5303 41.3011C36.6709 41.1487 36.7499 40.942 36.7499 40.7266C36.7499 40.5111 36.6709 40.3044 36.5303 40.152C36.3896 39.9997 36.1989 39.9141 35.9999 39.9141ZM1.49994 43.1641C1.40056 43.1625 1.30188 43.1824 1.20966 43.2226C1.11743 43.2627 1.03349 43.3223 0.962713 43.3979C0.891936 43.4735 0.835734 43.5636 0.797373 43.6629C0.759012 43.7623 0.739258 43.8689 0.739258 43.9766C0.739258 44.0842 0.759012 44.1908 0.797373 44.2902C0.835734 44.3895 0.891936 44.4796 0.962713 44.5552C1.03349 44.6308 1.11743 44.6904 1.20966 44.7305C1.30188 44.7707 1.40056 44.7906 1.49994 44.7891C1.59932 44.7906 1.698 44.7707 1.79022 44.7305C1.88245 44.6904 1.96639 44.6308 2.03717 44.5552C2.10794 44.4796 2.16414 44.3895 2.20251 44.2902C2.24087 44.1908 2.26062 44.0842 2.26062 43.9766C2.26062 43.8689 2.24087 43.7623 2.20251 43.6629C2.16414 43.5636 2.10794 43.4735 2.03717 43.3979C1.96639 43.3223 1.88245 43.2627 1.79022 43.2226C1.698 43.1824 1.59932 43.1625 1.49994 43.1641ZM4.49994 43.1641L3.89935 43.491L3.7807 44.2067L4.2392 44.7383L4.49994 44.7891L5.10053 44.4622L5.21918 43.7465L4.76068 43.2148L4.49994 43.1641ZM7.49994 43.1641L6.89935 43.491L6.7807 44.2067L7.2392 44.7383L7.49994 44.7891L8.10052 44.4622L8.21918 43.7465L7.76068 43.2148L7.49994 43.1641ZM10.4999 43.1641L9.89935 43.491L9.7807 44.2067L10.2392 44.7383L10.4999 44.7891L11.1005 44.4622L11.2192 43.7465L10.7607 43.2148L10.4999 43.1641ZM13.4999 43.1641L12.8994 43.491L12.7807 44.2067L13.2392 44.7383L13.4999 44.7891L14.1005 44.4622L14.2192 43.7465L13.7607 43.2148L13.4999 43.1641ZM16.4999 43.1641L15.8994 43.491L15.7807 44.2067L16.2392 44.7383L16.4999 44.7891L17.1005 44.4622L17.2192 43.7465L16.7607 43.2148L16.4999 43.1641ZM19.4999 43.1641C19.4006 43.1625 19.3019 43.1824 19.2097 43.2226C19.1174 43.2627 19.0335 43.3223 18.9627 43.3979C18.8919 43.4735 18.8357 43.5636 18.7974 43.6629C18.759 43.7623 18.7393 43.8689 18.7393 43.9766C18.7393 44.0842 18.759 44.1908 18.7974 44.2902C18.8357 44.3895 18.8919 44.4796 18.9627 44.5552C19.0335 44.6308 19.1174 44.6904 19.2097 44.7305C19.3019 44.7707 19.4006 44.7906 19.4999 44.7891C19.5993 44.7906 19.698 44.7707 19.7902 44.7305C19.8824 44.6904 19.9664 44.6308 20.0372 44.5552C20.1079 44.4796 20.1641 44.3895 20.2025 44.2902C20.2409 44.1908 20.2606 44.0842 20.2606 43.9766C20.2606 43.8689 20.2409 43.7623 20.2025 43.6629C20.1641 43.5636 20.1079 43.4735 20.0372 43.3979C19.9664 43.3223 19.8824 43.2627 19.7902 43.2226C19.698 43.1824 19.5993 43.1625 19.4999 43.1641ZM34.6816 43.3608C34.4827 43.3608 34.2919 43.4464 34.1512 43.5988C34.0106 43.7512 33.9316 43.9578 33.9316 44.1733C33.9316 44.3888 34.0106 44.5955 34.1512 44.7479C34.2919 44.9002 34.4827 44.9858 34.6816 44.9858C34.8805 44.9858 35.0713 44.9002 35.2119 44.7479C35.3526 44.5955 35.4316 44.3888 35.4316 44.1733C35.4316 43.9578 35.3526 43.7512 35.2119 43.5988C35.0713 43.4464 34.8805 43.3608 34.6816 43.3608ZM31.4999 44.7891C31.301 44.7891 31.1103 44.8747 30.9696 45.027C30.829 45.1794 30.7499 45.3861 30.7499 45.6016C30.7499 45.817 30.829 46.0237 30.9696 46.1761C31.1103 46.3285 31.301 46.4141 31.4999 46.4141C31.6989 46.4141 31.8896 46.3285 32.0303 46.1761C32.1709 46.0237 32.2499 45.817 32.2499 45.6016C32.2499 45.3861 32.1709 45.1794 32.0303 45.027C31.8896 44.8747 31.6989 44.7891 31.4999 44.7891Z"/>
</mask>
<path d="M47.9999 0L47.162 0.107909L38.373 1.23462L38.3642 1.23621C36.1531 1.5785 34.4999 3.64303 34.4999 6.0636V32.5555C33.0332 31.9186 31.4134 31.5947 29.6777 32.0049C26.5389 32.7467 24.0482 35.4747 23.4184 38.8905C22.333 44.7778 26.6751 49.9949 32.0082 49.6466C36.3214 49.3656 39.7499 45.144 39.7499 40.4949V12.0717L44.2631 11.2718L44.2675 11.2703C46.4198 10.8666 47.9999 8.83173 47.9999 6.46509V0ZM46.4999 1.82812V6.46509C46.4999 8.04982 45.457 9.39414 44.017 9.66748H44.0141L44.0112 9.66907L38.2499 10.691V40.4949C38.2499 44.2633 35.3623 47.8004 31.9189 48.0248C27.523 48.3119 23.987 44.1105 24.8906 39.2095C25.4008 36.4421 27.4508 34.1939 29.9985 33.5918C31.8057 33.1647 33.4843 33.5279 34.8749 34.3995L35.9999 35.1057V6.0636C35.9999 4.44127 37.0897 3.07877 38.5707 2.84692L46.4999 1.82812ZM8.24994 4.16406C8.15055 4.16254 8.05188 4.18243 7.95966 4.22258C7.86743 4.26273 7.78349 4.32233 7.71271 4.39793C7.64193 4.47353 7.58573 4.56361 7.54737 4.66295C7.50901 4.76228 7.48926 4.86889 7.48926 4.97656C7.48926 5.08424 7.50901 5.19084 7.54737 5.29018C7.58573 5.38951 7.64193 5.47959 7.71271 5.55519C7.78349 5.63079 7.86743 5.6904 7.95966 5.73054C8.05188 5.77069 8.15055 5.79059 8.24994 5.78906C8.34932 5.79059 8.448 5.77069 8.54022 5.73054C8.63245 5.6904 8.71639 5.63079 8.78717 5.55519C8.85794 5.47959 8.91415 5.38951 8.95251 5.29018C8.99087 5.19084 9.01062 5.08424 9.01062 4.97656C9.01062 4.86889 8.99087 4.76228 8.95251 4.66295C8.91415 4.56361 8.85794 4.47353 8.78717 4.39793C8.71639 4.32233 8.63245 4.26273 8.54022 4.22258C8.448 4.18243 8.34932 4.16254 8.24994 4.16406ZM11.2499 4.16406L10.6494 4.49097L10.5307 5.20666L10.9892 5.73828L11.2499 5.78906L11.8505 5.46216L11.9692 4.74646L11.5107 4.21484L11.2499 4.16406ZM14.2499 4.16406L13.6494 4.49097L13.5307 5.20666L13.9892 5.73828L14.2499 5.78906L14.8505 5.46216L14.9692 4.74646L14.5107 4.21484L14.2499 4.16406ZM17.2499 4.16406L16.6494 4.49097L16.5307 5.20666L16.9892 5.73828L17.2499 5.78906L17.8505 5.46216L17.9692 4.74646L17.5107 4.21484L17.2499 4.16406ZM20.2499 4.16406L19.6494 4.49097L19.5307 5.20666L19.9892 5.73828L20.2499 5.78906L20.8505 5.46216L20.9692 4.74646L20.5107 4.21484L20.2499 4.16406ZM23.2499 4.16406L22.6494 4.49097L22.5307 5.20666L22.9892 5.73828L23.2499 5.78906L23.8505 5.46216L23.9692 4.74646L23.5107 4.21484L23.2499 4.16406ZM26.2499 4.16406L25.6494 4.49097L25.5307 5.20666L25.9892 5.73828L26.2499 5.78906L26.8505 5.46216L26.9692 4.74646L26.5107 4.21484L26.2499 4.16406ZM29.2499 4.16406C29.1506 4.16254 29.0519 4.18243 28.9597 4.22258C28.8674 4.26273 28.7835 4.32233 28.7127 4.39793C28.6419 4.47353 28.5857 4.56361 28.5474 4.66295C28.509 4.76228 28.4893 4.86889 28.4893 4.97656C28.4893 5.08424 28.509 5.19084 28.5474 5.29018C28.5857 5.38951 28.6419 5.47959 28.7127 5.55519C28.7835 5.63079 28.8674 5.6904 28.9597 5.73054C29.0519 5.77069 29.1506 5.79059 29.2499 5.78906C29.3493 5.79059 29.448 5.77069 29.5402 5.73054C29.6324 5.6904 29.7164 5.63079 29.7872 5.55519C29.8579 5.47959 29.9141 5.38951 29.9525 5.29018C29.9909 5.19084 30.0106 5.08424 30.0106 4.97656C30.0106 4.86889 29.9909 4.76228 29.9525 4.66295C29.9141 4.56361 29.8579 4.47353 29.7872 4.39793C29.7164 4.32233 29.6324 4.26273 29.5402 4.22258C29.448 4.18243 29.3493 4.16254 29.2499 4.16406ZM16.1249 13.9141C16.0256 13.9125 15.9269 13.9324 15.8347 13.9726C15.7424 14.0127 15.6585 14.0723 15.5877 14.1479C15.5169 14.2235 15.4607 14.3136 15.4224 14.4129C15.384 14.5123 15.3643 14.6189 15.3643 14.7266C15.3643 14.8342 15.384 14.9408 15.4224 15.0402C15.4607 15.1395 15.5169 15.2296 15.5877 15.3052C15.6585 15.3808 15.7424 15.4404 15.8347 15.4805C15.9269 15.5207 16.0256 15.5406 16.1249 15.5391C16.2243 15.5406 16.323 15.5207 16.4152 15.4805C16.5074 15.4404 16.5914 15.3808 16.6622 15.3052C16.7329 15.2296 16.7891 15.1395 16.8275 15.0402C16.8659 14.9408 16.8856 14.8342 16.8856 14.7266C16.8856 14.6189 16.8659 14.5123 16.8275 14.4129C16.7891 14.3136 16.7329 14.2235 16.6622 14.1479C16.5914 14.0723 16.5074 14.0127 16.4152 13.9726C16.323 13.9324 16.2243 13.9125 16.1249 13.9141ZM19.4062 13.9141L18.8056 14.241L18.687 14.9567L19.1454 15.4883L19.4062 15.5391L20.0068 15.2122L20.1254 14.4965L19.6669 13.9648L19.4062 13.9141ZM22.6874 13.9141L22.0869 14.241L21.9682 14.9567L22.4267 15.4883L22.6874 15.5391L23.288 15.2122L23.4067 14.4965L22.9482 13.9648L22.6874 13.9141ZM25.9687 13.9141L25.3681 14.241L25.2495 14.9567L25.7079 15.4883L25.9687 15.5391L26.5693 15.2122L26.6879 14.4965L26.2294 13.9648L25.9687 13.9141ZM29.2499 13.9141C29.1506 13.9125 29.0519 13.9324 28.9597 13.9726C28.8674 14.0127 28.7835 14.0723 28.7127 14.1479C28.6419 14.2235 28.5857 14.3136 28.5474 14.4129C28.509 14.5123 28.4893 14.6189 28.4893 14.7266C28.4893 14.8342 28.509 14.9408 28.5474 15.0402C28.5857 15.1395 28.6419 15.2296 28.7127 15.3052C28.7835 15.3808 28.8674 15.4404 28.9597 15.4805C29.0519 15.5207 29.1506 15.5406 29.2499 15.5391C29.3493 15.5406 29.448 15.5207 29.5402 15.4805C29.6324 15.4404 29.7164 15.3808 29.7872 15.3052C29.8579 15.2296 29.9141 15.1395 29.9525 15.0402C29.9909 14.9408 30.0106 14.8342 30.0106 14.7266C30.0106 14.6189 29.9909 14.5123 29.9525 14.4129C29.9141 14.3136 29.8579 14.2235 29.7872 14.1479C29.7164 14.0723 29.6324 14.0127 29.5402 13.9726C29.448 13.9324 29.3493 13.9125 29.2499 13.9141ZM8.24994 23.6641C8.15055 23.6625 8.05188 23.6824 7.95966 23.7226C7.86743 23.7627 7.78349 23.8223 7.71271 23.8979C7.64193 23.9735 7.58573 24.0636 7.54737 24.1629C7.50901 24.2623 7.48926 24.3689 7.48926 24.4766C7.48926 24.5842 7.50901 24.6908 7.54737 24.7902C7.58573 24.8895 7.64193 24.9796 7.71271 25.0552C7.78349 25.1308 7.86743 25.1904 7.95966 25.2305C8.05188 25.2707 8.15055 25.2906 8.24994 25.2891C8.34932 25.2906 8.448 25.2707 8.54022 25.2305C8.63245 25.1904 8.71639 25.1308 8.78717 25.0552C8.85794 24.9796 8.91415 24.8895 8.95251 24.7902C8.99087 24.6908 9.01062 24.5842 9.01062 24.4766C9.01062 24.3689 8.99087 24.2623 8.95251 24.1629C8.91415 24.0636 8.85794 23.9735 8.78717 23.8979C8.71639 23.8223 8.63245 23.7627 8.54022 23.7226C8.448 23.6824 8.34932 23.6625 8.24994 23.6641ZM11.2499 23.6641L10.6494 23.991L10.5307 24.7067L10.9892 25.2383L11.2499 25.2891L11.8505 24.9622L11.9692 24.2465L11.5107 23.7148L11.2499 23.6641ZM14.2499 23.6641L13.6494 23.991L13.5307 24.7067L13.9892 25.2383L14.2499 25.2891L14.8505 24.9622L14.9692 24.2465L14.5107 23.7148L14.2499 23.6641ZM17.2499 23.6641L16.6494 23.991L16.5307 24.7067L16.9892 25.2383L17.2499 25.2891L17.8505 24.9622L17.9692 24.2465L17.5107 23.7148L17.2499 23.6641ZM20.2499 23.6641L19.6494 23.991L19.5307 24.7067L19.9892 25.2383L20.2499 25.2891L20.8505 24.9622L20.9692 24.2465L20.5107 23.7148L20.2499 23.6641ZM23.2499 23.6641L22.6494 23.991L22.5307 24.7067L22.9892 25.2383L23.2499 25.2891L23.8505 24.9622L23.9692 24.2465L23.5107 23.7148L23.2499 23.6641ZM26.2499 23.6641L25.6494 23.991L25.5307 24.7067L25.9892 25.2383L26.2499 25.2891L26.8505 24.9622L26.9692 24.2465L26.5107 23.7148L26.2499 23.6641ZM29.2499 23.6641C29.1506 23.6625 29.0519 23.6824 28.9597 23.7226C28.8674 23.7627 28.7835 23.8223 28.7127 23.8979C28.6419 23.9735 28.5857 24.0636 28.5474 24.1629C28.509 24.2623 28.4893 24.3689 28.4893 24.4766C28.4893 24.5842 28.509 24.6908 28.5474 24.7902C28.5857 24.8895 28.6419 24.9796 28.7127 25.0552C28.7835 25.1308 28.8674 25.1904 28.9597 25.2305C29.0519 25.2707 29.1506 25.2906 29.2499 25.2891C29.3493 25.2906 29.448 25.2707 29.5402 25.2305C29.6324 25.1904 29.7164 25.1308 29.7872 25.0552C29.8579 24.9796 29.9141 24.8895 29.9525 24.7902C29.9909 24.6908 30.0106 24.5842 30.0106 24.4766C30.0106 24.3689 29.9909 24.2623 29.9525 24.1629C29.9141 24.0636 29.8579 23.9735 29.7872 23.8979C29.7164 23.8223 29.6324 23.7627 29.5402 23.7226C29.448 23.6824 29.3493 23.6625 29.2499 23.6641ZM1.49994 33.4141C1.40056 33.4125 1.30188 33.4324 1.20966 33.4726C1.11743 33.5127 1.03349 33.5723 0.962713 33.6479C0.891936 33.7235 0.835734 33.8136 0.797373 33.9129C0.759012 34.0123 0.739258 34.1189 0.739258 34.2266C0.739258 34.3342 0.759012 34.4408 0.797373 34.5402C0.835734 34.6395 0.891936 34.7296 0.962713 34.8052C1.03349 34.8808 1.11743 34.9404 1.20966 34.9805C1.30188 35.0207 1.40056 35.0406 1.49994 35.0391C1.59932 35.0406 1.698 35.0207 1.79022 34.9805C1.88245 34.9404 1.96639 34.8808 2.03717 34.8052C2.10794 34.7296 2.16414 34.6395 2.20251 34.5402C2.24087 34.4408 2.26062 34.3342 2.26062 34.2266C2.26062 34.1189 2.24087 34.0123 2.20251 33.9129C2.16414 33.8136 2.10794 33.7235 2.03717 33.6479C1.96639 33.5723 1.88245 33.5127 1.79022 33.4726C1.698 33.4324 1.59932 33.4125 1.49994 33.4141ZM4.49994 33.4141L3.89935 33.741L3.7807 34.4567L4.2392 34.9883L4.49994 35.0391L5.10053 34.7122L5.21918 33.9965L4.76068 33.4648L4.49994 33.4141ZM7.49994 33.4141L6.89935 33.741L6.7807 34.4567L7.2392 34.9883L7.49994 35.0391L8.10052 34.7122L8.21918 33.9965L7.76068 33.4648L7.49994 33.4141ZM10.4999 33.4141L9.89935 33.741L9.7807 34.4567L10.2392 34.9883L10.4999 35.0391L11.1005 34.7122L11.2192 33.9965L10.7607 33.4648L10.4999 33.4141ZM13.4999 33.4141L12.8994 33.741L12.7807 34.4567L13.2392 34.9883L13.4999 35.0391L14.1005 34.7122L14.2192 33.9965L13.7607 33.4648L13.4999 33.4141ZM16.4999 33.4141L15.8994 33.741L15.7807 34.4567L16.2392 34.9883L16.4999 35.0391L17.1005 34.7122L17.2192 33.9965L16.7607 33.4648L16.4999 33.4141ZM19.4999 33.4141C19.4006 33.4125 19.3019 33.4324 19.2097 33.4726C19.1174 33.5127 19.0335 33.5723 18.9627 33.6479C18.8919 33.7235 18.8357 33.8136 18.7974 33.9129C18.759 34.0123 18.7393 34.1189 18.7393 34.2266C18.7393 34.3342 18.759 34.4408 18.7974 34.5402C18.8357 34.6395 18.8919 34.7296 18.9627 34.8052C19.0335 34.8808 19.1174 34.9404 19.2097 34.9805C19.3019 35.0207 19.4006 35.0406 19.4999 35.0391C19.5993 35.0406 19.698 35.0207 19.7902 34.9805C19.8824 34.9404 19.9664 34.8808 20.0372 34.8052C20.1079 34.7296 20.1641 34.6395 20.2025 34.5402C20.2409 34.4408 20.2606 34.3342 20.2606 34.2266C20.2606 34.1189 20.2409 34.0123 20.2025 33.9129C20.1641 33.8136 20.1079 33.7235 20.0372 33.6479C19.9664 33.5723 19.8824 33.5127 19.7902 33.4726C19.698 33.4324 19.5993 33.4125 19.4999 33.4141ZM35.9999 39.9141C35.801 39.9141 35.6103 39.9997 35.4696 40.152C35.329 40.3044 35.2499 40.5111 35.2499 40.7266C35.2499 40.942 35.329 41.1487 35.4696 41.3011C35.6103 41.4535 35.801 41.5391 35.9999 41.5391C36.1989 41.5391 36.3896 41.4535 36.5303 41.3011C36.6709 41.1487 36.7499 40.942 36.7499 40.7266C36.7499 40.5111 36.6709 40.3044 36.5303 40.152C36.3896 39.9997 36.1989 39.9141 35.9999 39.9141ZM1.49994 43.1641C1.40056 43.1625 1.30188 43.1824 1.20966 43.2226C1.11743 43.2627 1.03349 43.3223 0.962713 43.3979C0.891936 43.4735 0.835734 43.5636 0.797373 43.6629C0.759012 43.7623 0.739258 43.8689 0.739258 43.9766C0.739258 44.0842 0.759012 44.1908 0.797373 44.2902C0.835734 44.3895 0.891936 44.4796 0.962713 44.5552C1.03349 44.6308 1.11743 44.6904 1.20966 44.7305C1.30188 44.7707 1.40056 44.7906 1.49994 44.7891C1.59932 44.7906 1.698 44.7707 1.79022 44.7305C1.88245 44.6904 1.96639 44.6308 2.03717 44.5552C2.10794 44.4796 2.16414 44.3895 2.20251 44.2902C2.24087 44.1908 2.26062 44.0842 2.26062 43.9766C2.26062 43.8689 2.24087 43.7623 2.20251 43.6629C2.16414 43.5636 2.10794 43.4735 2.03717 43.3979C1.96639 43.3223 1.88245 43.2627 1.79022 43.2226C1.698 43.1824 1.59932 43.1625 1.49994 43.1641ZM4.49994 43.1641L3.89935 43.491L3.7807 44.2067L4.2392 44.7383L4.49994 44.7891L5.10053 44.4622L5.21918 43.7465L4.76068 43.2148L4.49994 43.1641ZM7.49994 43.1641L6.89935 43.491L6.7807 44.2067L7.2392 44.7383L7.49994 44.7891L8.10052 44.4622L8.21918 43.7465L7.76068 43.2148L7.49994 43.1641ZM10.4999 43.1641L9.89935 43.491L9.7807 44.2067L10.2392 44.7383L10.4999 44.7891L11.1005 44.4622L11.2192 43.7465L10.7607 43.2148L10.4999 43.1641ZM13.4999 43.1641L12.8994 43.491L12.7807 44.2067L13.2392 44.7383L13.4999 44.7891L14.1005 44.4622L14.2192 43.7465L13.7607 43.2148L13.4999 43.1641ZM16.4999 43.1641L15.8994 43.491L15.7807 44.2067L16.2392 44.7383L16.4999 44.7891L17.1005 44.4622L17.2192 43.7465L16.7607 43.2148L16.4999 43.1641ZM19.4999 43.1641C19.4006 43.1625 19.3019 43.1824 19.2097 43.2226C19.1174 43.2627 19.0335 43.3223 18.9627 43.3979C18.8919 43.4735 18.8357 43.5636 18.7974 43.6629C18.759 43.7623 18.7393 43.8689 18.7393 43.9766C18.7393 44.0842 18.759 44.1908 18.7974 44.2902C18.8357 44.3895 18.8919 44.4796 18.9627 44.5552C19.0335 44.6308 19.1174 44.6904 19.2097 44.7305C19.3019 44.7707 19.4006 44.7906 19.4999 44.7891C19.5993 44.7906 19.698 44.7707 19.7902 44.7305C19.8824 44.6904 19.9664 44.6308 20.0372 44.5552C20.1079 44.4796 20.1641 44.3895 20.2025 44.2902C20.2409 44.1908 20.2606 44.0842 20.2606 43.9766C20.2606 43.8689 20.2409 43.7623 20.2025 43.6629C20.1641 43.5636 20.1079 43.4735 20.0372 43.3979C19.9664 43.3223 19.8824 43.2627 19.7902 43.2226C19.698 43.1824 19.5993 43.1625 19.4999 43.1641ZM34.6816 43.3608C34.4827 43.3608 34.2919 43.4464 34.1512 43.5988C34.0106 43.7512 33.9316 43.9578 33.9316 44.1733C33.9316 44.3888 34.0106 44.5955 34.1512 44.7479C34.2919 44.9002 34.4827 44.9858 34.6816 44.9858C34.8805 44.9858 35.0713 44.9002 35.2119 44.7479C35.3526 44.5955 35.4316 44.3888 35.4316 44.1733C35.4316 43.9578 35.3526 43.7512 35.2119 43.5988C35.0713 43.4464 34.8805 43.3608 34.6816 43.3608ZM31.4999 44.7891C31.301 44.7891 31.1103 44.8747 30.9696 45.027C30.829 45.1794 30.7499 45.3861 30.7499 45.6016C30.7499 45.817 30.829 46.0237 30.9696 46.1761C31.1103 46.3285 31.301 46.4141 31.4999 46.4141C31.6989 46.4141 31.8896 46.3285 32.0303 46.1761C32.1709 46.0237 32.2499 45.817 32.2499 45.6016C32.2499 45.3861 32.1709 45.1794 32.0303 45.027C31.8896 44.8747 31.6989 44.7891 31.4999 44.7891Z" stroke="#CECDFF" stroke-width="14" mask="url(#path-1-inside-1_47_717)"/>
</svg>
