<svg width="318" height="524" viewBox="0 0 318 524" fill="none" xmlns="http://www.w3.org/2000/svg" xmlns:xlink="http://www.w3.org/1999/xlink">
<g filter="url(#filter0_b_1_1847)">
<rect x="317.65" y="15" width="509" height="317" rx="26" transform="rotate(90 317.65 15)" fill="url(#paint0_radial_1_1847)"/>
<rect x="317.15" y="15.5" width="508" height="316" rx="25.5" transform="rotate(90 317.15 15.5)" stroke="url(#paint1_linear_1_1847)"/>
</g>
<path d="M37.7232 242.163C37.0036 242.163 36.387 241.979 35.8735 241.609C35.36 241.24 34.9652 240.73 34.689 240.08C34.4167 239.431 34.2806 238.686 34.2806 237.845C34.2806 237.005 34.4264 236.272 34.7182 235.646C35.0099 235.019 35.4145 234.533 35.9319 234.187C36.4492 233.841 37.0464 233.668 37.7232 233.668C38.4156 233.668 39.0186 233.841 39.5321 234.187C40.0494 234.533 40.4501 235.019 40.7341 235.646C41.0219 236.272 41.1659 237.005 41.1659 237.845C41.1659 238.686 41.0297 239.431 40.7574 240.08C40.4851 240.73 40.0922 241.24 39.5788 241.609C39.0653 241.979 38.4468 242.163 37.7232 242.163ZM37.7232 241.16C38.2056 241.16 38.614 241.031 38.9486 240.775C39.287 240.518 39.5437 240.143 39.7188 239.648C39.8977 239.154 39.9872 238.553 39.9872 237.845C39.9872 236.784 39.781 235.99 39.3687 235.465C38.9602 234.936 38.4118 234.671 37.7232 234.671C37.0697 234.671 36.529 234.936 36.1011 235.465C35.6732 235.99 35.4592 236.784 35.4592 237.845C35.4592 238.553 35.5468 239.154 35.7218 239.648C35.9008 240.143 36.1575 240.518 36.492 240.775C36.8305 241.031 37.2409 241.16 37.7232 241.16ZM43.5961 242V235.43C43.316 235.655 43.0845 235.817 42.9017 235.914C42.7189 236.011 42.5458 236.087 42.3824 236.142L42.1957 235.103C42.4057 235.033 42.6197 234.934 42.8375 234.805C43.0592 234.673 43.2635 234.523 43.4502 234.356C43.6408 234.189 43.7944 234.014 43.9111 233.831H44.6697V242H43.5961ZM46.1888 237.519V236.282H47.4492V237.519H46.1888ZM46.1888 242V240.763H47.4492V242H46.1888ZM48.6979 241.988L50.9269 238.604C51.172 238.234 51.382 237.898 51.5571 237.595C51.7321 237.291 51.8644 237.011 51.9539 236.754C52.0472 236.494 52.0939 236.247 52.0939 236.013C52.0939 235.609 51.9792 235.288 51.7496 235.051C51.524 234.813 51.2148 234.695 50.8219 234.695C50.4329 234.695 50.0731 234.778 49.7424 234.945C49.4156 235.113 49.1142 235.336 48.838 235.617L48.6979 234.45C48.9664 234.232 49.2892 234.045 49.6666 233.889C50.0478 233.734 50.4718 233.656 50.9386 233.656C51.4365 233.656 51.8547 233.755 52.1931 233.954C52.5315 234.152 52.7863 234.42 52.9575 234.759C53.1287 235.097 53.2142 235.476 53.2142 235.897C53.2142 236.258 53.1656 236.603 53.0684 236.929C52.9711 237.252 52.8252 237.589 52.6307 237.939C52.4362 238.289 52.1951 238.682 51.9072 239.118L50.6702 240.985H53.5293V241.988H48.6979ZM56.9535 242.163C56.5061 242.163 56.0879 242.105 55.6989 241.988C55.3138 241.872 54.954 241.724 54.6195 241.545L54.8879 240.518C55.2224 240.709 55.5511 240.864 55.874 240.985C56.2008 241.101 56.5645 241.16 56.9651 241.16C57.4747 241.16 57.8715 241.033 58.1555 240.78C58.4433 240.524 58.5873 240.195 58.5873 239.794C58.5873 239.343 58.4317 238.981 58.1205 238.709C57.8093 238.437 57.323 238.301 56.6617 238.301H56.1482V237.297H56.6617C57.1635 237.297 57.5603 237.178 57.8521 236.941C58.1477 236.704 58.2955 236.379 58.2955 235.967C58.2955 235.527 58.1827 235.202 57.9571 234.992C57.7315 234.778 57.4086 234.671 56.9885 234.671C56.6578 234.671 56.3486 234.735 56.0607 234.864C55.7729 234.992 55.4908 235.15 55.2146 235.336L55.0279 234.204C55.3274 234.033 55.6503 233.901 55.9965 233.808C56.3466 233.714 56.7278 233.668 57.1402 233.668C57.6459 233.668 58.0738 233.759 58.4239 233.942C58.7779 234.125 59.0463 234.379 59.2291 234.706C59.4158 235.029 59.5092 235.403 59.5092 235.827C59.5092 236.356 59.3536 236.803 59.0424 237.169C58.7351 237.53 58.3189 237.768 57.7937 237.88V237.612C58.4122 237.733 58.8946 237.968 59.2408 238.318C59.5909 238.664 59.7659 239.145 59.7659 239.759C59.7659 240.257 59.6415 240.687 59.3925 241.049C59.1474 241.407 58.8129 241.683 58.3889 241.877C57.9649 242.068 57.4864 242.163 56.9535 242.163Z" fill="#CECDFF"/>
<path d="M259.723 337.163C259.004 337.163 258.387 336.979 257.874 336.609C257.36 336.24 256.965 335.73 256.689 335.08C256.417 334.431 256.281 333.686 256.281 332.845C256.281 332.005 256.426 331.272 256.718 330.646C257.01 330.019 257.415 329.533 257.932 329.187C258.449 328.841 259.046 328.668 259.723 328.668C260.416 328.668 261.019 328.841 261.532 329.187C262.049 329.533 262.45 330.019 262.734 330.646C263.022 331.272 263.166 332.005 263.166 332.845C263.166 333.686 263.03 334.431 262.757 335.08C262.485 335.73 262.092 336.24 261.579 336.609C261.065 336.979 260.447 337.163 259.723 337.163ZM259.723 336.16C260.206 336.16 260.614 336.031 260.949 335.775C261.287 335.518 261.544 335.143 261.719 334.648C261.898 334.154 261.987 333.553 261.987 332.845C261.987 331.784 261.781 330.99 261.369 330.465C260.96 329.936 260.412 329.671 259.723 329.671C259.07 329.671 258.529 329.936 258.101 330.465C257.673 330.99 257.459 331.784 257.459 332.845C257.459 333.553 257.547 334.154 257.722 334.648C257.901 335.143 258.157 335.518 258.492 335.775C258.83 336.031 259.241 336.16 259.723 336.16ZM266.6 337.163C266.152 337.163 265.734 337.105 265.345 336.988C264.96 336.872 264.6 336.724 264.266 336.545L264.534 335.518C264.869 335.709 265.197 335.864 265.52 335.985C265.847 336.101 266.211 336.16 266.611 336.16C267.121 336.16 267.518 336.033 267.802 335.78C268.09 335.524 268.233 335.195 268.233 334.794C268.233 334.343 268.078 333.981 267.767 333.709C267.455 333.437 266.969 333.301 266.308 333.301H265.794V332.297H266.308C266.81 332.297 267.207 332.178 267.498 331.941C267.794 331.704 267.942 331.379 267.942 330.967C267.942 330.527 267.829 330.202 267.603 329.992C267.378 329.778 267.055 329.671 266.635 329.671C266.304 329.671 265.995 329.735 265.707 329.864C265.419 329.992 265.137 330.15 264.861 330.336L264.674 329.204C264.974 329.033 265.297 328.901 265.643 328.808C265.993 328.714 266.374 328.668 266.786 328.668C267.292 328.668 267.72 328.759 268.07 328.942C268.424 329.125 268.692 329.379 268.875 329.706C269.062 330.029 269.155 330.403 269.155 330.827C269.155 331.356 269 331.803 268.689 332.169C268.381 332.53 267.965 332.768 267.44 332.88V332.612C268.058 332.733 268.541 332.968 268.887 333.318C269.237 333.664 269.412 334.145 269.412 334.759C269.412 335.257 269.288 335.687 269.039 336.049C268.794 336.407 268.459 336.683 268.035 336.877C267.611 337.068 267.133 337.163 266.6 337.163ZM270.696 332.519V331.282H271.956V332.519H270.696ZM270.696 337V335.763H271.956V337H270.696ZM273.205 336.988L275.434 333.604C275.679 333.234 275.889 332.898 276.064 332.595C276.239 332.291 276.372 332.011 276.461 331.754C276.554 331.494 276.601 331.247 276.601 331.013C276.601 330.609 276.486 330.288 276.257 330.051C276.031 329.813 275.722 329.695 275.329 329.695C274.94 329.695 274.58 329.778 274.25 329.945C273.923 330.113 273.621 330.336 273.345 330.617L273.205 329.45C273.474 329.232 273.796 329.045 274.174 328.889C274.555 328.734 274.979 328.656 275.446 328.656C275.944 328.656 276.362 328.755 276.7 328.954C277.039 329.152 277.294 329.42 277.465 329.759C277.636 330.097 277.721 330.476 277.721 330.897C277.721 331.258 277.673 331.603 277.576 331.929C277.478 332.252 277.332 332.589 277.138 332.939C276.943 333.289 276.702 333.682 276.414 334.118L275.177 335.985H278.037V336.988H273.205ZM281.461 337.163C281.013 337.163 280.595 337.105 280.206 336.988C279.821 336.872 279.461 336.724 279.127 336.545L279.395 335.518C279.73 335.709 280.058 335.864 280.381 335.985C280.708 336.101 281.072 336.16 281.472 336.16C281.982 336.16 282.379 336.033 282.663 335.78C282.951 335.524 283.094 335.195 283.094 334.794C283.094 334.343 282.939 333.981 282.628 333.709C282.316 333.437 281.83 333.301 281.169 333.301H280.655V332.297H281.169C281.671 332.297 282.068 332.178 282.359 331.941C282.655 331.704 282.803 331.379 282.803 330.967C282.803 330.527 282.69 330.202 282.464 329.992C282.239 329.778 281.916 329.671 281.496 329.671C281.165 329.671 280.856 329.735 280.568 329.864C280.28 329.992 279.998 330.15 279.722 330.336L279.535 329.204C279.835 329.033 280.158 328.901 280.504 328.808C280.854 328.714 281.235 328.668 281.647 328.668C282.153 328.668 282.581 328.759 282.931 328.942C283.285 329.125 283.554 329.379 283.736 329.706C283.923 330.029 284.016 330.403 284.016 330.827C284.016 331.356 283.861 331.803 283.55 332.169C283.242 332.53 282.826 332.768 282.301 332.88V332.612C282.919 332.733 283.402 332.968 283.748 333.318C284.098 333.664 284.273 334.145 284.273 334.759C284.273 335.257 284.149 335.687 283.9 336.049C283.655 336.407 283.32 336.683 282.896 336.877C282.472 337.068 281.994 337.163 281.461 337.163Z" fill="#CECDFF"/>
<g opacity="0.76" filter="url(#filter1_f_1_1847)">
<rect width="97" height="10" rx="5" transform="matrix(1 0 0 -1 47.6504 314)" fill="url(#paint2_linear_1_1847)"/>
</g>
<rect x="33.6504" y="306" width="252" height="4.94728" rx="2.47364" fill="#CECDFF" fill-opacity="0.19"/>
<rect x="33.6504" y="306" width="110.547" height="5" rx="2.5" fill="url(#paint3_linear_1_1847)"/>
<path fill-rule="evenodd" clip-rule="evenodd" d="M159.387 278C177.612 278 192.387 263.225 192.387 245C192.387 226.775 177.612 212 159.387 212C141.161 212 126.387 226.775 126.387 245C126.387 263.225 141.161 278 159.387 278ZM174.83 246.372C175.511 245.99 175.511 245.01 174.83 244.628L152.376 232.045C151.709 231.671 150.887 232.153 150.887 232.917L150.887 258.083C150.887 258.847 151.709 259.329 152.376 258.955L174.83 246.372Z" fill="url(#paint4_radial_1_1847)"/>
<g opacity="0.2">
<path d="M245.974 241.765C246.641 242.149 246.641 243.112 245.974 243.497L231.659 251.762C230.992 252.147 230.159 251.665 230.159 250.896L230.159 234.366C230.159 233.596 230.992 233.115 231.659 233.499L245.974 241.765Z" fill="#CECDFF"/>
<rect x="245.825" y="232.736" width="3.29818" height="19.7891" rx="1.64909" fill="#CECDFF"/>
</g>
<g opacity="0.2">
<path d="M72.7986 243.497C72.1319 243.112 72.1319 242.15 72.7986 241.765L87.1141 233.5C87.7807 233.115 88.6141 233.596 88.6141 234.366L88.614 250.896C88.614 251.666 87.7807 252.147 87.114 251.762L72.7986 243.497Z" fill="#CECDFF"/>
<rect x="72.9485" y="157.525" width="3.29818" height="19.7891" rx="1.64909" transform="rotate(-180 72.9485 157.525)" fill="#CECDFF"/>
</g>
<g opacity="0.9">
<rect x="33.6504" y="369" width="46" height="46" rx="5" fill="#CECDFF" fill-opacity="0.19"/>
<rect x="88.6504" y="378" width="46" height="9" rx="4.5" fill="url(#paint5_linear_1_1847)"/>
<rect x="88.6504" y="395" width="113" height="9" rx="4.5" fill="#CECDFF" fill-opacity="0.19"/>
</g>
<g opacity="0.4">
<rect x="33.6504" y="444" width="46" height="46" rx="5" fill="#CECDFF" fill-opacity="0.19"/>
<rect x="88.6504" y="453" width="46" height="9" rx="4.5" fill="url(#paint6_linear_1_1847)"/>
<rect x="88.6504" y="470" width="113" height="9" rx="4.5" fill="#CECDFF" fill-opacity="0.19"/>
</g>
<rect x="73.6504" width="172" height="172" rx="8" fill="url(#pattern0)"/>
<defs>
<filter id="filter0_b_1_1847" x="-41.3496" y="-27" width="401" height="593" filterUnits="userSpaceOnUse" color-interpolation-filters="sRGB">
<feFlood flood-opacity="0" result="BackgroundImageFix"/>
<feGaussianBlur in="BackgroundImageFix" stdDeviation="21"/>
<feComposite in2="SourceAlpha" operator="in" result="effect1_backgroundBlur_1_1847"/>
<feBlend mode="normal" in="SourceGraphic" in2="effect1_backgroundBlur_1_1847" result="shape"/>
</filter>
<filter id="filter1_f_1_1847" x="24.6504" y="281" width="143" height="56" filterUnits="userSpaceOnUse" color-interpolation-filters="sRGB">
<feFlood flood-opacity="0" result="BackgroundImageFix"/>
<feBlend mode="normal" in="SourceGraphic" in2="BackgroundImageFix" result="shape"/>
<feGaussianBlur stdDeviation="11.5" result="effect1_foregroundBlur_1_1847"/>
</filter>
<pattern id="pattern0" patternContentUnits="objectBoundingBox" width="1" height="1">
<use xlink:href="#image0_1_1847" transform="translate(-0.249908) scale(0.000366166)"/>
</pattern>
<radialGradient id="paint0_radial_1_1847" cx="0" cy="0" r="1" gradientUnits="userSpaceOnUse" gradientTransform="translate(322.229 24.4314) rotate(31.0892) scale(579.907 820.694)">
<stop stop-color="#5A57FF" stop-opacity="0.35"/>
<stop offset="1" stop-color="#CECDFF" stop-opacity="0.01"/>
</radialGradient>
<linearGradient id="paint1_linear_1_1847" x1="389.023" y1="15" x2="614.142" y2="298.676" gradientUnits="userSpaceOnUse">
<stop stop-color="#CECDFF" stop-opacity="0.26"/>
<stop offset="1" stop-color="#CECDFF" stop-opacity="0"/>
</linearGradient>
<linearGradient id="paint2_linear_1_1847" x1="47.9699" y1="0" x2="113.072" y2="0" gradientUnits="userSpaceOnUse">
<stop stop-color="#B3BDFE"/>
<stop offset="0.317708" stop-color="#9D93FD"/>
<stop offset="1" stop-color="#5A57FF"/>
</linearGradient>
<linearGradient id="paint3_linear_1_1847" x1="88.3199" y1="306" x2="162.514" y2="306" gradientUnits="userSpaceOnUse">
<stop stop-color="#B3BDFE"/>
<stop offset="0.317708" stop-color="#9D93FD"/>
<stop offset="1" stop-color="#5A57FF"/>
</linearGradient>
<radialGradient id="paint4_radial_1_1847" cx="0" cy="0" r="1" gradientUnits="userSpaceOnUse" gradientTransform="translate(143.151 278) rotate(-57.8389) scale(77.9632 15955.1)">
<stop stop-color="#B3BDFE"/>
<stop offset="0.446988" stop-color="#9D93FD"/>
<stop offset="1" stop-color="#5A57FF"/>
</radialGradient>
<linearGradient id="paint5_linear_1_1847" x1="111.399" y1="378" x2="142.272" y2="378" gradientUnits="userSpaceOnUse">
<stop stop-color="#B3BDFE"/>
<stop offset="0.317708" stop-color="#9D93FD"/>
<stop offset="1" stop-color="#5A57FF"/>
</linearGradient>
<linearGradient id="paint6_linear_1_1847" x1="111.399" y1="453" x2="142.272" y2="453" gradientUnits="userSpaceOnUse">
<stop stop-color="#B3BDFE"/>
<stop offset="0.317708" stop-color="#9D93FD"/>
<stop offset="1" stop-color="#5A57FF"/>
</linearGradient>

</defs>
</svg>
