<svg width="170" height="280" viewBox="0 0 170 280" fill="none" xmlns="http://www.w3.org/2000/svg" xmlns:xlink="http://www.w3.org/1999/xlink">
<g filter="url(#filter0_b_47_625)">
<rect x="169.39" y="8.01562" width="271.985" height="169.389" rx="13.8931" transform="rotate(90 169.39 8.01562)" fill="url(#paint0_radial_47_625)"/>
<rect x="169.122" y="8.2828" width="271.45" height="168.855" rx="13.626" transform="rotate(90 169.122 8.2828)" stroke="url(#paint1_linear_47_625)" stroke-width="0.534351"/>
</g>
<path d="M19.8101 129.988C19.4256 129.988 19.0961 129.889 18.8217 129.691C18.5473 129.494 18.3364 129.222 18.1888 128.875C18.0433 128.527 17.9705 128.129 17.9705 127.68C17.9705 127.231 18.0485 126.84 18.2044 126.505C18.3603 126.17 18.5764 125.91 18.8529 125.725C19.1294 125.54 19.4484 125.448 19.8101 125.448C20.1801 125.448 20.5023 125.54 20.7767 125.725C21.0531 125.91 21.2672 126.17 21.419 126.505C21.5728 126.84 21.6497 127.231 21.6497 127.68C21.6497 128.129 21.5769 128.527 21.4314 128.875C21.2859 129.222 21.076 129.494 20.8016 129.691C20.5272 129.889 20.1967 129.988 19.8101 129.988ZM19.8101 129.451C20.0679 129.451 20.2861 129.383 20.4649 129.246C20.6457 129.108 20.7829 128.908 20.8764 128.644C20.9721 128.38 21.0199 128.059 21.0199 127.68C21.0199 127.113 20.9097 126.689 20.6894 126.408C20.4711 126.126 20.178 125.984 19.8101 125.984C19.4609 125.984 19.172 126.126 18.9433 126.408C18.7147 126.689 18.6004 127.113 18.6004 127.68C18.6004 128.059 18.6471 128.38 18.7407 128.644C18.8363 128.908 18.9735 129.108 19.1522 129.246C19.3331 129.383 19.5524 129.451 19.8101 129.451ZM22.9483 129.9V126.39C22.7986 126.51 22.6749 126.596 22.5772 126.648C22.4795 126.7 22.387 126.741 22.2997 126.77L22.2 126.215C22.3122 126.178 22.4265 126.125 22.5429 126.056C22.6614 125.985 22.7705 125.905 22.8703 125.816C22.9722 125.727 23.0543 125.633 23.1166 125.535H23.522V129.9H22.9483ZM24.3337 127.506V126.845H25.0072V127.506H24.3337ZM24.3337 129.9V129.239H25.0072V129.9H24.3337ZM25.6745 129.894L26.8655 128.086C26.9965 127.888 27.1087 127.708 27.2023 127.546C27.2958 127.384 27.3665 127.235 27.4143 127.097C27.4642 126.958 27.4891 126.826 27.4891 126.701C27.4891 126.485 27.4278 126.314 27.3051 126.187C27.1846 126.06 27.0193 125.997 26.8094 125.997C26.6015 125.997 26.4093 126.041 26.2326 126.131C26.058 126.22 25.8969 126.34 25.7493 126.489L25.6745 125.866C25.8179 125.749 25.9904 125.65 26.192 125.566C26.3957 125.483 26.6223 125.442 26.8718 125.442C27.1378 125.442 27.3613 125.495 27.5421 125.601C27.723 125.707 27.8591 125.85 27.9506 126.031C28.042 126.212 28.0878 126.415 28.0878 126.639C28.0878 126.832 28.0618 127.016 28.0098 127.191C27.9578 127.363 27.8799 127.543 27.776 127.73C27.672 127.917 27.5432 128.127 27.3893 128.36L26.7283 129.358H28.2561V129.894H25.6745ZM30.0858 129.988C29.8468 129.988 29.6233 129.957 29.4155 129.894C29.2097 129.832 29.0174 129.753 28.8386 129.657L28.9821 129.108C29.1608 129.21 29.3365 129.293 29.509 129.358C29.6836 129.42 29.878 129.451 30.092 129.451C30.3643 129.451 30.5764 129.384 30.7281 129.249C30.8819 129.112 30.9588 128.936 30.9588 128.722C30.9588 128.481 30.8757 128.287 30.7094 128.142C30.5431 127.996 30.2833 127.924 29.9299 127.924H29.6555V127.387H29.9299C30.1981 127.387 30.4101 127.324 30.566 127.197C30.724 127.07 30.8029 126.897 30.8029 126.676C30.8029 126.442 30.7427 126.268 30.6221 126.156C30.5015 126.041 30.329 125.984 30.1045 125.984C29.9278 125.984 29.7626 126.019 29.6088 126.087C29.455 126.156 29.3043 126.24 29.1567 126.34L29.0569 125.735C29.2169 125.643 29.3895 125.573 29.5745 125.523C29.7615 125.473 29.9653 125.448 30.1856 125.448C30.4558 125.448 30.6845 125.497 30.8715 125.595C31.0607 125.692 31.2041 125.828 31.3018 126.003C31.4016 126.175 31.4515 126.375 31.4515 126.602C31.4515 126.884 31.3683 127.123 31.202 127.319C31.0378 127.512 30.8154 127.639 30.5348 127.699V127.556C30.8653 127.62 31.123 127.746 31.308 127.933C31.4951 128.118 31.5887 128.375 31.5887 128.703C31.5887 128.969 31.5221 129.199 31.3891 129.392C31.2582 129.583 31.0794 129.731 30.8528 129.835C30.6263 129.937 30.3706 129.988 30.0858 129.988Z" fill="#CECDFF"/>
<path d="M138.436 180.751C138.052 180.751 137.722 180.652 137.448 180.455C137.173 180.257 136.962 179.985 136.815 179.638C136.669 179.291 136.597 178.893 136.597 178.444C136.597 177.995 136.674 177.603 136.83 177.268C136.986 176.934 137.202 176.674 137.479 176.489C137.755 176.304 138.074 176.211 138.436 176.211C138.806 176.211 139.128 176.304 139.403 176.489C139.679 176.674 139.893 176.934 140.045 177.268C140.199 177.603 140.276 177.995 140.276 178.444C140.276 178.893 140.203 179.291 140.057 179.638C139.912 179.985 139.702 180.257 139.428 180.455C139.153 180.652 138.823 180.751 138.436 180.751ZM138.436 180.215C138.694 180.215 138.912 180.146 139.091 180.009C139.272 179.872 139.409 179.671 139.502 179.407C139.598 179.143 139.646 178.822 139.646 178.444C139.646 177.876 139.536 177.452 139.315 177.172C139.097 176.889 138.804 176.748 138.436 176.748C138.087 176.748 137.798 176.889 137.569 177.172C137.341 177.452 137.226 177.876 137.226 178.444C137.226 178.822 137.273 179.143 137.367 179.407C137.462 179.671 137.599 179.872 137.778 180.009C137.959 180.146 138.178 180.215 138.436 180.215ZM142.111 180.751C141.871 180.751 141.648 180.72 141.44 180.658C141.234 180.595 141.042 180.516 140.863 180.421L141.007 179.872C141.186 179.974 141.361 180.057 141.534 180.121C141.708 180.184 141.903 180.215 142.117 180.215C142.389 180.215 142.601 180.147 142.753 180.012C142.907 179.875 142.984 179.699 142.984 179.485C142.984 179.244 142.9 179.051 142.734 178.905C142.568 178.76 142.308 178.687 141.955 178.687H141.68V178.151H141.955C142.223 178.151 142.435 178.087 142.591 177.961C142.749 177.834 142.828 177.66 142.828 177.44C142.828 177.205 142.767 177.031 142.647 176.919C142.526 176.805 142.354 176.748 142.129 176.748C141.953 176.748 141.787 176.782 141.633 176.851C141.48 176.919 141.329 177.003 141.181 177.103L141.082 176.498C141.242 176.407 141.414 176.336 141.599 176.286C141.786 176.236 141.99 176.211 142.21 176.211C142.481 176.211 142.709 176.26 142.896 176.358C143.085 176.456 143.229 176.592 143.327 176.766C143.426 176.939 143.476 177.138 143.476 177.365C143.476 177.648 143.393 177.887 143.227 178.082C143.063 178.275 142.84 178.402 142.56 178.463V178.319C142.89 178.384 143.148 178.509 143.333 178.696C143.52 178.881 143.613 179.138 143.613 179.467C143.613 179.733 143.547 179.962 143.414 180.156C143.283 180.347 143.104 180.494 142.878 180.598C142.651 180.7 142.395 180.751 142.111 180.751ZM144.299 178.269V177.608H144.973V178.269H144.299ZM144.299 180.664V180.003H144.973V180.664H144.299ZM145.64 180.658L146.831 178.849C146.962 178.652 147.074 178.472 147.168 178.31C147.262 178.148 147.332 177.998 147.38 177.861C147.43 177.722 147.455 177.59 147.455 177.465C147.455 177.249 147.394 177.077 147.271 176.95C147.15 176.824 146.985 176.76 146.775 176.76C146.567 176.76 146.375 176.805 146.198 176.894C146.024 176.984 145.863 177.103 145.715 177.253L145.64 176.629C145.784 176.513 145.956 176.413 146.158 176.33C146.361 176.247 146.588 176.205 146.837 176.205C147.104 176.205 147.327 176.258 147.508 176.364C147.689 176.47 147.825 176.614 147.916 176.794C148.008 176.975 148.053 177.178 148.053 177.402C148.053 177.596 148.027 177.78 147.976 177.954C147.924 178.127 147.846 178.307 147.742 178.494C147.638 178.681 147.509 178.891 147.355 179.124L146.694 180.121H148.222V180.658H145.64ZM150.052 180.751C149.812 180.751 149.589 180.72 149.381 180.658C149.175 180.595 148.983 180.516 148.804 180.421L148.948 179.872C149.127 179.974 149.302 180.057 149.475 180.121C149.649 180.184 149.844 180.215 150.058 180.215C150.33 180.215 150.542 180.147 150.694 180.012C150.848 179.875 150.925 179.699 150.925 179.485C150.925 179.244 150.841 179.051 150.675 178.905C150.509 178.76 150.249 178.687 149.896 178.687H149.621V178.151H149.896C150.164 178.151 150.376 178.087 150.532 177.961C150.69 177.834 150.769 177.66 150.769 177.44C150.769 177.205 150.708 177.031 150.588 176.919C150.467 176.805 150.295 176.748 150.07 176.748C149.894 176.748 149.728 176.782 149.574 176.851C149.421 176.919 149.27 177.003 149.122 177.103L149.023 176.498C149.183 176.407 149.355 176.336 149.54 176.286C149.727 176.236 149.931 176.211 150.151 176.211C150.422 176.211 150.65 176.26 150.837 176.358C151.026 176.456 151.17 176.592 151.268 176.766C151.367 176.939 151.417 177.138 151.417 177.365C151.417 177.648 151.334 177.887 151.168 178.082C151.004 178.275 150.781 178.402 150.501 178.463V178.319C150.831 178.384 151.089 178.509 151.274 178.696C151.461 178.881 151.554 179.138 151.554 179.467C151.554 179.733 151.488 179.962 151.355 180.156C151.224 180.347 151.045 180.494 150.819 180.598C150.592 180.7 150.336 180.751 150.052 180.751Z" fill="#CECDFF"/>
<g opacity="0.76" filter="url(#filter1_f_47_625)">
<rect width="51.8321" height="5.34351" rx="2.67176" transform="matrix(1 0 0 -1 25.1143 167.786)" fill="url(#paint2_linear_47_625)"/>
</g>
<rect x="17.6338" y="163.511" width="134.656" height="2.64358" rx="1.32179" fill="#CECDFF" fill-opacity="0.19"/>
<rect x="17.6338" y="163.511" width="59.071" height="2.67176" rx="1.33588" fill="url(#paint3_linear_47_625)"/>
<path fill-rule="evenodd" clip-rule="evenodd" d="M84.8201 148.55C94.5589 148.55 102.454 140.655 102.454 130.916C102.454 121.177 94.5589 113.282 84.8201 113.282C75.0814 113.282 67.1866 121.177 67.1866 130.916C67.1866 140.655 75.0814 148.55 84.8201 148.55ZM93.0722 131.649C93.4364 131.445 93.4364 130.921 93.0722 130.717L81.0737 123.993C80.7175 123.794 80.2782 124.051 80.2782 124.46L80.2782 137.907C80.2782 138.315 80.7175 138.573 81.0737 138.373L93.0722 131.649Z" fill="url(#paint4_radial_47_625)"/>
<g opacity="0.2">
<path d="M131.088 129.187C131.444 129.393 131.444 129.907 131.088 130.113L123.438 134.529C123.082 134.735 122.637 134.478 122.637 134.066L122.637 125.233C122.637 124.822 123.082 124.565 123.438 124.771L131.088 129.187Z" fill="#CECDFF"/>
<rect x="131.009" y="124.363" width="1.76239" height="10.5743" rx="0.881194" fill="#CECDFF"/>
</g>
<g opacity="0.2">
<path d="M38.5526 130.113C38.1964 129.907 38.1964 129.393 38.5526 129.187L46.2021 124.771C46.5583 124.565 47.0036 124.822 47.0036 125.234L47.0036 134.067C47.0036 134.478 46.5583 134.735 46.2021 134.529L38.5526 130.113Z" fill="#CECDFF"/>
<rect x="38.6328" y="84.1741" width="1.76239" height="10.5743" rx="0.881194" transform="rotate(-180 38.6328 84.1741)" fill="#CECDFF"/>
</g>
<g opacity="0.9">
<rect x="17.6338" y="197.176" width="24.5802" height="24.5802" rx="2.67176" fill="#CECDFF" fill-opacity="0.19"/>
<rect x="47.0234" y="201.985" width="24.5802" height="4.80916" rx="2.40458" fill="url(#paint5_linear_47_625)"/>
<rect x="47.0234" y="211.069" width="60.3817" height="4.80916" rx="2.40458" fill="#CECDFF" fill-opacity="0.19"/>
</g>
<g opacity="0.4">
<rect x="17.6338" y="237.252" width="24.5802" height="24.5802" rx="2.67176" fill="#CECDFF" fill-opacity="0.19"/>
<rect x="47.0234" y="242.061" width="24.5802" height="4.80916" rx="2.40458" fill="url(#paint6_linear_47_625)"/>
<rect x="47.0234" y="251.145" width="60.3817" height="4.80916" rx="2.40458" fill="#CECDFF" fill-opacity="0.19"/>
</g>
<rect x="39.0078" width="91.9084" height="91.9084" rx="4.27481" fill="url(#pattern0)"/>
<defs>
<filter id="filter0_b_47_625" x="-22.4424" y="-14.4271" width="214.275" height="316.87" filterUnits="userSpaceOnUse" color-interpolation-filters="sRGB">
<feFlood flood-opacity="0" result="BackgroundImageFix"/>
<feGaussianBlur in="BackgroundImageFix" stdDeviation="11.2214"/>
<feComposite in2="SourceAlpha" operator="in" result="effect1_backgroundBlur_47_625"/>
<feBlend mode="normal" in="SourceGraphic" in2="effect1_backgroundBlur_47_625" result="shape"/>
</filter>
<filter id="filter1_f_47_625" x="12.8242" y="150.153" width="76.4122" height="29.9237" filterUnits="userSpaceOnUse" color-interpolation-filters="sRGB">
<feFlood flood-opacity="0" result="BackgroundImageFix"/>
<feBlend mode="normal" in="SourceGraphic" in2="BackgroundImageFix" result="shape"/>
<feGaussianBlur stdDeviation="6.14504" result="effect1_foregroundBlur_47_625"/>
</filter>
<pattern id="pattern0" patternContentUnits="objectBoundingBox" width="1" height="1">
<use xlink:href="#image0_47_625" transform="translate(-0.249908) scale(0.000366166)"/>
</pattern>
<radialGradient id="paint0_radial_47_625" cx="0" cy="0" r="1" gradientUnits="userSpaceOnUse" gradientTransform="translate(171.836 13.0553) rotate(31.0892) scale(309.874 438.539)">
<stop stop-color="#5A57FF" stop-opacity="0.35"/>
<stop offset="1" stop-color="#CECDFF" stop-opacity="0.01"/>
</radialGradient>
<linearGradient id="paint1_linear_47_625" x1="207.528" y1="8.01562" x2="327.821" y2="159.598" gradientUnits="userSpaceOnUse">
<stop stop-color="#CECDFF" stop-opacity="0.26"/>
<stop offset="1" stop-color="#CECDFF" stop-opacity="0"/>
</linearGradient>
<linearGradient id="paint2_linear_47_625" x1="25.6328" y1="0" x2="60.4201" y2="0" gradientUnits="userSpaceOnUse">
<stop stop-color="#B3BDFE"/>
<stop offset="0.317708" stop-color="#9D93FD"/>
<stop offset="1" stop-color="#5A57FF"/>
</linearGradient>
<linearGradient id="paint3_linear_47_625" x1="46.8465" y1="163.511" x2="86.4923" y2="163.511" gradientUnits="userSpaceOnUse">
<stop stop-color="#B3BDFE"/>
<stop offset="0.317708" stop-color="#9D93FD"/>
<stop offset="1" stop-color="#5A57FF"/>
</linearGradient>
<radialGradient id="paint4_radial_47_625" cx="0" cy="0" r="1" gradientUnits="userSpaceOnUse" gradientTransform="translate(76.1443 148.55) rotate(-57.8389) scale(41.6597 8525.61)">
<stop stop-color="#B3BDFE"/>
<stop offset="0.446988" stop-color="#9D93FD"/>
<stop offset="1" stop-color="#5A57FF"/>
</radialGradient>
<linearGradient id="paint5_linear_47_625" x1="59.1792" y1="201.985" x2="75.6763" y2="201.985" gradientUnits="userSpaceOnUse">
<stop stop-color="#B3BDFE"/>
<stop offset="0.317708" stop-color="#9D93FD"/>
<stop offset="1" stop-color="#5A57FF"/>
</linearGradient>
<linearGradient id="paint6_linear_47_625" x1="59.1792" y1="242.061" x2="75.6763" y2="242.061" gradientUnits="userSpaceOnUse">
<stop stop-color="#B3BDFE"/>
<stop offset="0.317708" stop-color="#9D93FD"/>
<stop offset="1" stop-color="#5A57FF"/>
</linearGradient>

</defs>
</svg>
