<svg width="26" height="26" viewBox="0 0 26 26" fill="none" xmlns="http://www.w3.org/2000/svg">
<path d="M25.1374 23.3623L20.4999 18.7623C22.3 16.5178 23.1718 13.6689 22.9359 10.8014C22.7001 7.93389 21.3745 5.26574 19.2318 3.34556C17.0891 1.42539 14.2922 0.399146 11.4161 0.477847C8.53996 0.556547 5.80331 1.73421 3.76884 3.76869C1.73436 5.80316 0.5567 8.53981 0.477999 11.4159C0.399299 14.292 1.42554 17.089 3.34572 19.2317C5.26589 21.3743 7.93404 22.6999 10.8015 22.9358C13.669 23.1716 16.5179 22.2999 18.7624 20.4998L23.3624 25.0998C23.4786 25.2169 23.6169 25.3099 23.7692 25.3734C23.9215 25.4368 24.0849 25.4695 24.2499 25.4695C24.4149 25.4695 24.5783 25.4368 24.7306 25.3734C24.883 25.3099 25.0212 25.2169 25.1374 25.0998C25.3627 24.8667 25.4886 24.5552 25.4886 24.231C25.4886 23.9068 25.3627 23.5953 25.1374 23.3623ZM11.7499 20.4998C10.0193 20.4998 8.3276 19.9866 6.88867 19.0251C5.44974 18.0637 4.32823 16.6971 3.66596 15.0982C3.0037 13.4994 2.83042 11.7401 3.16804 10.0427C3.50566 8.34539 4.33902 6.78628 5.56273 5.56257C6.78644 4.33886 8.34554 3.50551 10.0429 3.16789C11.7402 2.83027 13.4995 3.00355 15.0984 3.66581C16.6972 4.32808 18.0638 5.44959 19.0253 6.88852C19.9867 8.32745 20.4999 10.0192 20.4999 11.7498C20.4999 14.0704 19.578 16.296 17.9371 17.9369C16.2962 19.5779 14.0706 20.4998 11.7499 20.4998Z" fill="#F2F2F2"/>
</svg>
