<svg width="24" height="25" viewBox="0 0 24 25" fill="none" xmlns="http://www.w3.org/2000/svg">
<path d="M15.0859 5.60463C15.4474 5.16346 15.7231 4.65103 15.897 4.09675C16.071 3.54248 16.1398 2.95728 16.0995 2.37476C14.9897 2.46961 13.9595 3.02231 13.2308 3.91376C12.8819 4.34101 12.6174 4.83805 12.4532 5.37545C12.2889 5.91285 12.2282 6.47968 12.2745 7.04238C12.8159 7.04716 13.3511 6.91997 13.8386 6.67065C14.3261 6.42134 14.7529 6.05659 15.0859 5.60463ZM17.4957 13.1376C17.5021 12.3618 17.6951 11.6005 18.0565 10.9255C18.4179 10.2506 18.9357 9.68426 19.5612 9.28001C19.1665 8.67781 18.6446 8.18128 18.0371 7.82978C17.4296 7.47828 16.7531 7.28149 16.0613 7.25501C14.5695 7.09301 13.1925 8.17638 12.3989 8.17638C11.6052 8.17638 10.4864 7.27526 9.24323 7.29551C8.43054 7.32385 7.63866 7.57473 6.94483 8.02368C6.251 8.47263 5.67891 9.10432 5.28436 9.85713C3.60136 12.9554 4.85404 17.5623 6.53704 20.0631C7.30204 21.2883 8.25829 22.6754 9.52054 22.6248C10.7828 22.5741 11.194 21.7945 12.657 21.7945C14.1201 21.7945 14.5695 22.6248 15.8127 22.5944C17.0558 22.564 17.9355 21.3389 18.7388 20.1138C19.3078 19.2243 19.7523 18.2524 20.0584 17.2281C19.3006 16.8859 18.654 16.3162 18.1986 15.5892C17.7431 14.8623 17.4988 14.01 17.4957 13.1376Z" fill="#E0D1FF"/>
</svg>
