<svg width="19" height="18" viewBox="0 0 19 18" fill="none" xmlns="http://www.w3.org/2000/svg">
<path d="M14.6739 3.64066C14.4609 3.64066 14.2527 3.69931 14.0756 3.80919C13.8985 3.91907 13.7605 4.07525 13.6789 4.25797C13.5974 4.4407 13.5761 4.64177 13.6177 4.83575C13.6592 5.02973 13.7618 5.20791 13.9124 5.34776C14.063 5.48762 14.2549 5.58286 14.4638 5.62144C14.6727 5.66003 14.8892 5.64022 15.086 5.56454C15.2828 5.48885 15.451 5.36068 15.5693 5.19623C15.6877 5.03178 15.7508 4.83844 15.7508 4.64066C15.7508 4.37544 15.6374 4.12109 15.4354 3.93355C15.2334 3.74601 14.9595 3.64066 14.6739 3.64066ZM18.8021 5.65732C18.7846 4.96591 18.6452 4.28183 18.3893 3.63232C18.1611 3.0766 17.8059 2.57339 17.3483 2.15732C16.9039 1.73018 16.3607 1.40247 15.7598 1.19899C15.0622 0.954125 14.3247 0.821666 13.579 0.807324C12.6277 0.757324 12.3226 0.757324 9.88159 0.757324C7.44056 0.757324 7.13543 0.757324 6.18415 0.807324C5.43852 0.821666 4.701 0.954125 4.00338 1.19899C3.4036 1.40453 2.86089 1.73196 2.41492 2.15732C1.95492 2.56997 1.602 3.07436 1.38287 3.63232C1.11917 4.28011 0.976518 4.96495 0.961073 5.65732C0.907227 6.54066 0.907227 6.82399 0.907227 9.09066C0.907227 11.3573 0.907227 11.6407 0.961073 12.524C0.976518 13.2164 1.11917 13.9012 1.38287 14.549C1.602 15.107 1.95492 15.6113 2.41492 16.024C2.86089 16.4494 3.4036 16.7768 4.00338 16.9823C4.701 17.2272 5.43852 17.3596 6.18415 17.374C7.13543 17.424 7.44056 17.424 9.88159 17.424C12.3226 17.424 12.6277 17.424 13.579 17.374C14.3247 17.3596 15.0622 17.2272 15.7598 16.9823C16.3607 16.7788 16.9039 16.4511 17.3483 16.024C17.808 15.6095 18.1634 15.1058 18.3893 14.549C18.6452 13.8995 18.7846 13.2154 18.8021 12.524C18.8021 11.6407 18.8559 11.3573 18.8559 9.09066C18.8559 6.82399 18.8559 6.54066 18.8021 5.65732ZM17.1867 12.424C17.1802 12.953 17.077 13.4771 16.8816 13.974C16.7383 14.3367 16.5081 14.6643 16.2085 14.9323C15.9174 15.2077 15.5653 15.421 15.1765 15.5573C14.6413 15.7388 14.0769 15.8346 13.5072 15.8407C12.6098 15.8823 12.2777 15.8907 9.91748 15.8907C7.55723 15.8907 7.22518 15.8907 6.32774 15.8407C5.73623 15.8509 5.14725 15.7664 4.58671 15.5907C4.21498 15.4474 3.87896 15.2346 3.59953 14.9657C3.30167 14.6979 3.07439 14.37 2.93543 14.0073C2.71633 13.5033 2.5948 12.9673 2.57646 12.424C2.57646 11.5907 2.52261 11.2823 2.52261 9.09066C2.52261 6.89899 2.52261 6.59066 2.57646 5.75732C2.58048 5.21654 2.6868 4.68061 2.89056 4.17399C3.04855 3.82225 3.29105 3.50871 3.59953 3.25732C3.87219 2.9708 4.20915 2.74324 4.58671 2.59066C5.13375 2.40736 5.7103 2.31156 6.29184 2.30732C7.18928 2.30732 7.52133 2.25732 9.88159 2.25732C12.2418 2.25732 12.5739 2.25732 13.4713 2.30732C14.041 2.31339 14.6054 2.4092 15.1406 2.59066C15.5484 2.7312 15.9144 2.9597 16.2085 3.25732C16.5026 3.51331 16.7324 3.82627 16.8816 4.17399C17.081 4.68144 17.1843 5.21714 17.1867 5.75732C17.2316 6.59066 17.2406 6.89899 17.2406 9.09066C17.2406 11.2823 17.2316 11.5907 17.1867 12.424ZM9.88159 4.81566C8.97142 4.8173 8.08219 5.06943 7.32628 5.54017C6.57036 6.01092 5.98167 6.67915 5.63459 7.46045C5.28751 8.24175 5.19762 9.10105 5.37627 9.92976C5.55493 10.7585 5.99411 11.5194 6.63832 12.1165C7.28254 12.7135 8.10288 13.1198 8.99569 13.2841C9.8885 13.4484 10.8137 13.3632 11.6544 13.0394C12.4952 12.7156 13.2137 12.1677 13.7191 11.4649C14.2246 10.762 14.4944 9.93582 14.4944 9.09066C14.4956 8.52824 14.377 7.97116 14.1455 7.45145C13.914 6.93175 13.5741 6.45967 13.1454 6.06237C12.7167 5.66507 12.2077 5.35039 11.6476 5.13643C11.0874 4.92247 10.4873 4.81346 9.88159 4.81566ZM9.88159 11.8657C9.29052 11.8657 8.71274 11.7029 8.22129 11.398C7.72984 11.0931 7.3468 10.6597 7.12061 10.1526C6.89442 9.64554 6.83524 9.08758 6.95055 8.54928C7.06586 8.01098 7.35048 7.51653 7.76842 7.12844C8.18637 6.74035 8.71886 6.47605 9.29857 6.36898C9.87827 6.2619 10.4792 6.31686 11.0252 6.52689C11.5713 6.73692 12.038 7.0926 12.3664 7.54895C12.6948 8.0053 12.87 8.54181 12.87 9.09066C12.87 9.45508 12.7927 9.81593 12.6426 10.1526C12.4924 10.4893 12.2723 10.7952 11.9947 11.0529C11.7172 11.3106 11.3878 11.515 11.0252 11.6544C10.6626 11.7939 10.274 11.8657 9.88159 11.8657Z" fill="#F2F2F2"/>
</svg>
