<svg width="23" height="24" viewBox="0 0 23 24" fill="none" xmlns="http://www.w3.org/2000/svg">
<g clip-path="url(#clip0_47_576)">
<path d="M11.4751 0.699951C5.13776 0.699951 9.15527e-05 5.8371 9.15527e-05 12.175C9.15527e-05 18.5128 5.13776 23.65 11.4751 23.65C17.8124 23.65 22.9501 18.5128 22.9501 12.175C22.9501 5.8371 17.8124 0.699951 11.4751 0.699951ZM17.0735 17.2419C16.8892 17.5682 16.5502 17.7518 16.2007 17.7518C16.0373 17.7518 15.8686 17.7109 15.7139 17.6249C14.2813 16.8216 12.72 16.3296 11.07 16.1625C9.41655 15.9968 7.78397 16.1646 6.21572 16.6653C5.69239 16.8324 5.12908 16.5433 4.96217 16.0191C4.79352 15.494 5.08387 14.9326 5.60893 14.7647C7.43798 14.1803 9.34525 13.9816 11.2717 14.1773C13.1946 14.3731 15.0167 14.9469 16.6893 15.8843C17.1709 16.1524 17.343 16.7606 17.0735 17.2419ZM18.447 13.7564C18.2697 14.0977 17.922 14.2935 17.5621 14.2935C17.4056 14.2935 17.2491 14.2577 17.1013 14.1803C15.3401 13.263 13.438 12.695 11.4438 12.4926C9.43392 12.2869 7.4432 12.4662 5.52374 13.0198C4.99346 13.1703 4.44058 12.8671 4.28932 12.337C4.13632 11.8078 4.4423 11.2549 4.97085 11.102C7.13719 10.4773 9.38351 10.2772 11.6455 10.5067C13.8918 10.7355 16.0373 11.3754 18.0245 12.4109C18.5114 12.6656 18.7026 13.2679 18.447 13.7564ZM18.9443 10.8567C18.7947 10.8567 18.6435 10.823 18.4992 10.7521C16.4093 9.70991 14.1613 9.06088 11.8159 8.82286C9.46696 8.58258 7.13024 8.76827 4.86827 9.37227C4.33625 9.51345 3.79032 9.19788 3.64775 8.66499C3.50518 8.1328 3.82162 7.58565 4.35538 7.4436C6.85033 6.77736 9.43046 6.57446 12.0193 6.83769C14.6046 7.09935 17.0839 7.81584 19.3894 8.9656C19.8831 9.21145 20.0831 9.8111 19.8379 10.3038C19.6641 10.6545 19.3111 10.8567 18.9443 10.8567Z" fill="#CECDFF"/>
</g>
<defs>
<clipPath id="clip0_47_576">
<rect width="22.95" height="22.95" fill="white" transform="translate(9.15527e-05 0.699951)"/>
</clipPath>
</defs>
</svg>
