<svg width="24" height="24" viewBox="0 0 24 24" fill="none" xmlns="http://www.w3.org/2000/svg">
<path d="M17.3254 8.9844C18.8013 10.0431 20.6092 10.6661 22.5619 10.6661V6.89513C22.1924 6.89521 21.8238 6.85653 21.4622 6.77966V9.74793C19.5097 9.74793 17.702 9.12499 16.2257 8.06634V15.7617C16.2257 19.6114 13.1161 22.7319 9.28037 22.7319C7.84918 22.7319 6.51894 22.2977 5.41391 21.5529C6.67512 22.8471 8.43397 23.6499 10.3798 23.6499C14.2158 23.6499 17.3256 20.5294 17.3256 16.6796V8.9844H17.3254ZM18.682 5.17998C17.9278 4.35305 17.4326 3.28439 17.3254 2.10294V1.61792H16.2833C16.5456 3.11954 17.4403 4.40243 18.682 5.17998ZM7.84 18.5989C7.4186 18.0444 7.19088 17.3661 7.1919 16.6686C7.1919 14.9079 8.61423 13.4804 10.369 13.4804C10.696 13.4803 11.0211 13.5305 11.3328 13.6298V9.77455C10.9686 9.72446 10.601 9.70319 10.2335 9.71099V12.7117C9.92165 12.6125 9.59642 12.5621 9.26931 12.5624C7.51454 12.5624 6.09229 13.9898 6.09229 15.7507C6.09229 16.9958 6.80322 18.0737 7.84 18.5989Z" fill="#FF004F"/>
<path d="M16.2257 8.06626C17.7019 9.12491 19.5096 9.74785 21.4622 9.74785V6.77958C20.3723 6.5466 19.4074 5.97502 18.682 5.17998C17.4402 4.40235 16.5456 3.11946 16.2833 1.61792H13.5459V16.6795C13.5397 18.4353 12.1198 19.8571 10.3688 19.8571C9.33697 19.8571 8.42028 19.3635 7.83973 18.5989C6.80302 18.0737 6.09209 16.9957 6.09209 15.7508C6.09209 13.99 7.51434 12.5625 9.26912 12.5625C9.60532 12.5625 9.92937 12.615 10.2333 12.7118V9.71107C6.46501 9.7892 3.43436 12.8792 3.43436 16.6796C3.43436 18.5766 4.18906 20.2964 5.41395 21.553C6.51898 22.2977 7.84922 22.732 9.28041 22.732C13.1162 22.732 16.2258 19.6113 16.2258 15.7617V8.06626H16.2257Z" fill="#CECDFF"/>
<path d="M21.4622 6.7796V5.977C20.4794 5.9785 19.5159 5.70228 18.682 5.17992C19.4202 5.99094 20.3922 6.55016 21.4622 6.7796ZM16.2833 1.61794C16.2583 1.47443 16.2391 1.32998 16.2257 1.18497V0.699951H12.4462V15.7617C12.4401 17.5173 11.0203 18.9391 9.26916 18.9391C8.75504 18.9391 8.26963 18.8166 7.83976 18.599C8.42032 19.3635 9.33701 19.857 10.3688 19.857C12.1197 19.857 13.5398 18.4354 13.546 16.6796V1.61794H16.2833ZM10.2335 9.71108V8.85666C9.91772 8.81334 9.59932 8.7916 9.28053 8.79176C5.44442 8.79168 2.33478 11.9124 2.33478 15.7617C2.33478 18.175 3.55692 20.3018 5.41406 21.5529C4.18917 20.2964 3.43447 18.5765 3.43447 16.6795C3.43447 12.8793 6.46505 9.78922 10.2335 9.71108Z" fill="#00F2EA"/>
</svg>
