<svg width="21" height="21" viewBox="0 0 21 21" fill="none" xmlns="http://www.w3.org/2000/svg">
<path d="M19.8168 8.18223C19.858 6.98944 19.5971 5.80558 19.0584 4.74056C18.6929 4.30356 18.1857 4.00865 17.6251 3.90723C15.3064 3.69683 12.978 3.6106 10.6501 3.6489C8.33063 3.60886 6.01068 3.69231 3.70009 3.8989C3.24327 3.98199 2.82052 4.19626 2.48342 4.51556C1.73342 5.20723 1.65009 6.39056 1.56675 7.39056C1.44585 9.18853 1.44585 10.9926 1.56675 12.7906C1.59086 13.3534 1.67467 13.9121 1.81675 14.4572C1.91723 14.8781 2.12052 15.2675 2.40842 15.5906C2.74781 15.9268 3.18041 16.1532 3.65009 16.2406C5.44668 16.4623 7.25694 16.5542 9.06675 16.5156C11.9834 16.5572 14.5418 16.5156 17.5668 16.2822C18.048 16.2003 18.4927 15.9735 18.8418 15.6322C19.0751 15.3988 19.2493 15.1131 19.3501 14.7989C19.6481 13.8844 19.7945 12.9273 19.7834 11.9656C19.8168 11.4989 19.8168 8.68223 19.8168 8.18223ZM8.76675 12.4656V7.30723L13.7001 9.8989C12.3168 10.6656 10.4918 11.5322 8.76675 12.4656Z" fill="#F2F2F2"/>
</svg>
