<svg width="28" height="27" viewBox="0 0 28 27" fill="none" xmlns="http://www.w3.org/2000/svg">
<path d="M26.5749 10.9232C26.6306 9.31292 26.2784 7.7147 25.5512 6.27693C25.0578 5.68698 24.373 5.28886 23.6162 5.15193C20.4859 4.8679 17.3426 4.75148 14.1999 4.80318C11.0686 4.74914 7.93672 4.8618 4.81742 5.14068C4.20072 5.25286 3.63 5.54213 3.17492 5.97318C2.16242 6.90693 2.04992 8.50443 1.93742 9.85443C1.7742 12.2817 1.7742 14.7172 1.93742 17.1444C1.96997 17.9043 2.0831 18.6585 2.27492 19.3944C2.41057 19.9626 2.68501 20.4883 3.07367 20.9244C3.53185 21.3783 4.11585 21.684 4.74992 21.8019C7.17533 22.1013 9.61917 22.2254 12.0624 22.1732C15.9999 22.2294 19.4537 22.1732 23.5374 21.8582C24.1871 21.7475 24.7875 21.4414 25.2587 20.9807C25.5736 20.6656 25.8089 20.2799 25.9449 19.8557C26.3473 18.6211 26.5449 17.3291 26.5299 16.0307C26.5749 15.4007 26.5749 11.5982 26.5749 10.9232ZM11.6574 16.7057V9.74193L18.3174 13.2407C16.4499 14.2757 13.9862 15.4457 11.6574 16.7057Z" fill="#E0D1FF"/>
</svg>
